<?xml version="1.0" encoding="utf-8"?>
<!-- Generator: Adobe Illustrator 24.2.3, SVG Export Plug-In . SVG Version: 6.00 Build 0)  -->
<svg version="1.1" id="Layer_1" xmlns="http://www.w3.org/2000/svg" xmlns:xlink="http://www.w3.org/1999/xlink" x="0px" y="0px"
	 viewBox="0 0 215.4 44.5" xml:space="preserve">
<g>
	<g>
		<g>
			<path class="recolor-1" d="M30,44.2H17.3c-1.9,0-3.4-1.5-3.4-3.4V8.6l0-0.1c0-0.1,0.5-2.1,2-4.1c1.9-2.7,4.7-4.2,7.9-4.2
				c4,0,6.4,2,7.7,3.8c1.3,1.7,1.8,3.4,1.8,3.7c0.1,0.4,0.8,2.5-0.1,3.7c-0.3,0.4-0.8,0.8-1.7,0.8c-0.8,0-1.5-0.2-1.9-0.7
				c-0.4-0.5-0.4-1-0.4-1.2c0-0.5-0.3-5.8-5.4-5.8c-2.2,0-3.8,0.7-4.8,2.2C18.3,7.8,18.2,9,18.2,9l0,0.1l0,0.1c0,0.1-0.5,2.1,1,4
				c1.6,2,4.8,3,9.4,3.1H30c1.9,0,3.4,1.5,3.4,3.4v4.7c0,0.4-0.3,0.6-0.6,0.6s-0.6-0.3-0.6-0.6v-4.7c0-1.2-1-2.2-2.2-2.2h-1.5
				c-5.1,0-8.6-1.2-10.4-3.6c-1.7-2.2-1.3-4.6-1.2-5c0.1-0.6,0.7-5.5,6.9-5.5c6.5,0,6.7,7,6.7,7l0,0.1l0,0c0,0,0,0.1,0.1,0.2
				c0.1,0.2,0.5,0.2,0.9,0.2c0.5,0,0.6-0.2,0.7-0.3c0.4-0.6,0.1-2-0.1-2.5l0-0.1c-0.1-0.3-1.6-6.5-8.3-6.5c-2.8,0-5.1,1.2-6.8,3.6
				c-1.2,1.6-1.6,3.3-1.7,3.6v32c0,1.2,1,2.2,2.2,2.2H30c1.2,0,2.2-1,2.2-2.2v-9.7c0-0.4,0.3-0.6,0.6-0.6s0.6,0.3,0.6,0.6v9.7
				C33.5,42.7,31.9,44.2,30,44.2z"/>
		</g>
		<g>
			<path class="recolor-1" d="M28.8,17.4c-0.1,0-0.2,0-0.2,0l0-1.3c0.1,0,0.2,0,0.2,0V17.4z"/>
		</g>
		<g>
			<path class="recolor-1" d="M26.8,7c0,1.6-1.3,2.9-2.9,2.9l-0.4,0L2.2,8.5v-3l21.2-1.4l0.4,0C25.5,4.1,26.8,5.4,26.8,7z"/>
			<path class="recolor-1" d="M23.8,10.6L23.8,10.6l-0.4,0L1.6,9.1V4.9l22.2-1.5c2,0,3.6,1.6,3.6,3.6S25.8,10.6,23.8,10.6z M2.9,7.9
				l21,1.4c1.3,0,2.3-1,2.3-2.3s-1-2.3-2.3-2.3l-0.4,0L2.9,6.1V7.9z"/>
		</g>
		<g>
			<line class="recolor-1" x1="17.3" y1="20.8" x2="30.1" y2="20.8"/>
			<path class="recolor-1" d="M30.1,21.4H17.3c-0.4,0-0.6-0.3-0.6-0.6c0-0.4,0.3-0.6,0.6-0.6h12.8c0.4,0,0.6,0.3,0.6,0.6
				C30.8,21.1,30.5,21.4,30.1,21.4z"/>
		</g>
		<g>
			<line class="recolor-1" x1="17.3" y1="23.9" x2="27.3" y2="23.9"/>
			<path class="recolor-1" d="M27.3,24.5h-10c-0.4,0-0.6-0.3-0.6-0.6c0-0.4,0.3-0.6,0.6-0.6h10c0.4,0,0.6,0.3,0.6,0.6
				C27.9,24.2,27.6,24.5,27.3,24.5z"/>
		</g>
		<g>
			<line class="recolor-1" x1="17.1" y1="27" x2="24.2" y2="27"/>
			<path class="recolor-1" d="M24.2,27.6h-7c-0.4,0-0.6-0.3-0.6-0.6c0-0.4,0.3-0.6,0.6-0.6h7c0.4,0,0.6,0.3,0.6,0.6
				C24.8,27.4,24.5,27.6,24.2,27.6z"/>
		</g>
		<g>
			<line class="recolor-1" x1="17.1" y1="30" x2="30.4" y2="30"/>
			<path class="recolor-1" d="M30.4,30.7H17.1c-0.4,0-0.6-0.3-0.6-0.6c0-0.4,0.3-0.6,0.6-0.6h13.3c0.4,0,0.6,0.3,0.6,0.6
				C31.1,30.4,30.8,30.7,30.4,30.7z"/>
		</g>
		<g>
			<path class="recolor-1" d="M22.3,41.3h-4.9c-0.4,0-0.6-0.3-0.6-0.6v-7.6c0-0.4,0.3-0.6,0.6-0.6h4.9c0.4,0,0.6,0.3,0.6,0.6v7.6
				C23,41.1,22.7,41.3,22.3,41.3z M18.1,40.1h3.6v-6.3h-3.6V40.1z"/>
		</g>
		<g>
			<path class="recolor-1" d="M27.6,41.5c-1.6,0-3-1.3-3-3c0-1.6,1.3-3,3-3s3,1.3,3,3C30.5,40.2,29.2,41.5,27.6,41.5z M27.6,36.9
				c-0.9,0-1.7,0.8-1.7,1.7c0,0.9,0.8,1.7,1.7,1.7c0.9,0,1.7-0.8,1.7-1.7C29.3,37.6,28.5,36.9,27.6,36.9z"/>
		</g>
		<g>
			<path class="recolor-1" d="M32.8,30c-0.4,0-0.6-0.3-0.6-0.6v-0.8c0-0.4,0.3-0.6,0.6-0.6c0.4,0,0.6,0.3,0.6,0.6v0.8
				C33.5,29.7,33.2,30,32.8,30z"/>
		</g>
		<g>
			<line class="recolor-1" x1="27" y1="27" x2="30.4" y2="27"/>
			<path class="recolor-1" d="M30.4,27.6H27c-0.4,0-0.6-0.3-0.6-0.6c0-0.4,0.3-0.6,0.6-0.6h3.4c0.4,0,0.6,0.3,0.6,0.6
				C31,27.4,30.7,27.6,30.4,27.6z"/>
		</g>
	</g>
	<g>
		<path class="recolor-1" d="M57.4,22.7l2.6,0.7c-0.6,2.2-1.5,3.8-3,5c-1.4,1.1-3.2,1.7-5.3,1.7c-2.1,0-3.9-0.4-5.2-1.3
			c-1.3-0.9-2.4-2.1-3.1-3.8c-0.7-1.7-1.1-3.4-1.1-5.3c0-2.1,0.4-3.9,1.2-5.4c0.8-1.5,1.9-2.7,3.4-3.5c1.5-0.8,3.1-1.2,4.8-1.2
			c2,0,3.7,0.5,5,1.5c1.4,1,2.3,2.4,2.8,4.3l-2.6,0.6c-0.5-1.5-1.1-2.5-2-3.2c-0.9-0.7-2-1-3.3-1c-1.5,0-2.8,0.4-3.8,1.1
			c-1,0.7-1.8,1.7-2.2,3c-0.4,1.2-0.6,2.5-0.6,3.8c0,1.7,0.2,3.2,0.7,4.4c0.5,1.3,1.3,2.2,2.3,2.8c1,0.6,2.2,0.9,3.4,0.9
			c1.5,0,2.7-0.4,3.8-1.3C56.3,25.6,57,24.3,57.4,22.7z"/>
		<path class="recolor-1" d="M61.6,29.7V9.7H64v7.2c1.1-1.3,2.6-2,4.3-2c1.1,0,2,0.2,2.8,0.6c0.8,0.4,1.4,1,1.7,1.7
			c0.3,0.7,0.5,1.8,0.5,3.2v9.2h-2.4v-9.2c0-1.2-0.3-2.1-0.8-2.7c-0.5-0.6-1.3-0.8-2.3-0.8c-0.7,0-1.4,0.2-2,0.6
			c-0.6,0.4-1.1,0.9-1.4,1.5c-0.3,0.6-0.4,1.5-0.4,2.7v7.9H61.6z"/>
		<path class="recolor-1" d="M85.1,27.9c-0.9,0.8-1.8,1.3-2.6,1.6c-0.8,0.3-1.7,0.5-2.7,0.5c-1.6,0-2.8-0.4-3.7-1.2
			c-0.9-0.8-1.3-1.8-1.3-3c0-0.7,0.2-1.4,0.5-1.9c0.3-0.6,0.7-1.1,1.3-1.4c0.5-0.4,1.1-0.6,1.8-0.8c0.5-0.1,1.2-0.2,2.2-0.4
			c2-0.2,3.4-0.5,4.4-0.8c0-0.3,0-0.5,0-0.6c0-1-0.2-1.7-0.7-2.1c-0.6-0.6-1.6-0.8-2.8-0.8c-1.2,0-2,0.2-2.6,0.6
			c-0.5,0.4-1,1.1-1.2,2.1l-2.4-0.3c0.2-1,0.6-1.9,1.1-2.5c0.5-0.6,1.2-1.1,2.2-1.5c0.9-0.3,2-0.5,3.3-0.5c1.2,0,2.2,0.1,3,0.4
			c0.8,0.3,1.3,0.7,1.7,1.1c0.4,0.4,0.6,1,0.8,1.7c0.1,0.4,0.1,1.2,0.1,2.3v3.3c0,2.3,0.1,3.7,0.2,4.3c0.1,0.6,0.3,1.2,0.6,1.7h-2.6
			C85.4,29.2,85.2,28.6,85.1,27.9z M84.9,22.4c-0.9,0.4-2.2,0.7-4,0.9c-1,0.1-1.7,0.3-2.1,0.5c-0.4,0.2-0.7,0.4-1,0.8
			c-0.2,0.3-0.3,0.7-0.3,1.2c0,0.7,0.2,1.2,0.7,1.6c0.5,0.4,1.2,0.7,2.2,0.7c0.9,0,1.8-0.2,2.5-0.6c0.7-0.4,1.3-1,1.6-1.7
			c0.3-0.6,0.4-1.4,0.4-2.4V22.4z"/>
		<path class="recolor-1" d="M89.8,29.7V15.2H92v2.2c0.6-1,1.1-1.7,1.6-2c0.5-0.3,1-0.5,1.6-0.5c0.8,0,1.7,0.3,2.5,0.8l-0.8,2.3
			c-0.6-0.4-1.2-0.5-1.8-0.5c-0.5,0-1,0.2-1.4,0.5c-0.4,0.3-0.7,0.8-0.9,1.3c-0.3,0.9-0.4,1.8-0.4,2.9v7.6H89.8z"/>
		<path class="recolor-1" d="M97.2,30.9l2.4,0.4c0.1,0.7,0.4,1.3,0.8,1.6c0.6,0.5,1.4,0.7,2.5,0.7c1.1,0,2-0.2,2.6-0.7
			c0.6-0.5,1-1.1,1.3-1.9c0.1-0.5,0.2-1.5,0.2-3.1c-1.1,1.3-2.4,1.9-4,1.9c-2,0-3.5-0.7-4.6-2.1s-1.6-3.2-1.6-5.2
			c0-1.4,0.2-2.7,0.7-3.8c0.5-1.2,1.2-2.1,2.2-2.7c0.9-0.6,2.1-1,3.3-1c1.7,0,3.1,0.7,4.2,2.1v-1.7h2.3v12.5c0,2.2-0.2,3.8-0.7,4.8
			c-0.5,0.9-1.2,1.7-2.2,2.2c-1,0.5-2.2,0.8-3.7,0.8c-1.7,0-3.1-0.4-4.2-1.2C97.7,33.6,97.2,32.4,97.2,30.9z M99.3,22.2
			c0,1.9,0.4,3.3,1.1,4.2c0.8,0.9,1.7,1.3,2.8,1.3c1.1,0,2.1-0.4,2.8-1.3c0.8-0.9,1.1-2.2,1.1-4.1c0-1.8-0.4-3.1-1.2-4
			c-0.8-0.9-1.7-1.3-2.8-1.3c-1.1,0-2,0.4-2.8,1.3C99.6,19.1,99.3,20.4,99.3,22.2z"/>
		<path class="recolor-1" d="M121.7,25l2.5,0.3c-0.4,1.5-1.1,2.6-2.2,3.4c-1.1,0.8-2.5,1.2-4.1,1.2c-2.1,0-3.8-0.7-5-2
			c-1.2-1.3-1.9-3.1-1.9-5.5c0-2.4,0.6-4.3,1.9-5.7s2.9-2,4.9-2c1.9,0,3.5,0.7,4.7,2c1.2,1.3,1.8,3.2,1.8,5.6c0,0.1,0,0.4,0,0.7
			h-10.8c0.1,1.6,0.5,2.8,1.3,3.6c0.8,0.8,1.8,1.3,3,1.3c0.9,0,1.7-0.2,2.3-0.7C120.8,26.8,121.3,26,121.7,25z M113.6,21h8.1
			c-0.1-1.2-0.4-2.1-0.9-2.7c-0.8-0.9-1.8-1.4-3-1.4c-1.1,0-2.1,0.4-2.8,1.1C114.1,18.8,113.7,19.8,113.6,21z"/>
		<path class="recolor-1" d="M137.6,27.5l0.4,2.2c-0.7,0.1-1.3,0.2-1.9,0.2c-0.9,0-1.6-0.1-2.1-0.4c-0.5-0.3-0.8-0.7-1-1.1
			c-0.2-0.5-0.3-1.4-0.3-2.9v-8.3h-1.8v-1.9h1.8v-3.6l2.4-1.5v5h2.5v1.9h-2.5v8.4c0,0.7,0,1.1,0.1,1.3c0.1,0.2,0.2,0.4,0.4,0.5
			c0.2,0.1,0.5,0.2,0.8,0.2C136.8,27.6,137.1,27.5,137.6,27.5z"/>
		<path class="recolor-1" d="M137.7,22.4c0-2.7,0.7-4.7,2.2-5.9c1.2-1.1,2.8-1.6,4.5-1.6c2,0,3.6,0.7,4.9,2c1.3,1.3,1.9,3.1,1.9,5.4
			c0,1.9-0.3,3.3-0.8,4.4c-0.6,1.1-1.4,1.9-2.4,2.5c-1.1,0.6-2.2,0.9-3.5,0.9c-2,0-3.7-0.6-4.9-1.9
			C138.3,26.7,137.7,24.9,137.7,22.4z M140.2,22.4c0,1.9,0.4,3.2,1.2,4.2c0.8,0.9,1.8,1.4,3,1.4c1.2,0,2.2-0.5,3-1.4
			c0.8-0.9,1.2-2.3,1.2-4.2c0-1.8-0.4-3.1-1.2-4.1c-0.8-0.9-1.8-1.4-3-1.4c-1.2,0-2.2,0.5-3,1.4C140.6,19.2,140.2,20.6,140.2,22.4z"
			/>
		<path class="recolor-1" d="M159,29.7V15.2h2.2v2.2c0.6-1,1.1-1.7,1.6-2c0.5-0.3,1-0.5,1.6-0.5c0.8,0,1.7,0.3,2.5,0.8l-0.8,2.3
			c-0.6-0.4-1.2-0.5-1.8-0.5c-0.5,0-1,0.2-1.4,0.5c-0.4,0.3-0.7,0.8-0.9,1.3c-0.3,0.9-0.4,1.8-0.4,2.9v7.6H159z"/>
		<path class="recolor-1" d="M166,22.4c0-2.7,0.7-4.7,2.2-5.9c1.2-1.1,2.8-1.6,4.5-1.6c2,0,3.6,0.7,4.9,2c1.3,1.3,1.9,3.1,1.9,5.4
			c0,1.9-0.3,3.3-0.8,4.4c-0.6,1.1-1.4,1.9-2.4,2.5c-1.1,0.6-2.2,0.9-3.5,0.9c-2,0-3.7-0.6-4.9-1.9C166.6,26.7,166,24.9,166,22.4z
			 M168.5,22.4c0,1.9,0.4,3.2,1.2,4.2c0.8,0.9,1.8,1.4,3,1.4c1.2,0,2.2-0.5,3-1.4c0.8-0.9,1.2-2.3,1.2-4.2c0-1.8-0.4-3.1-1.2-4.1
			c-0.8-0.9-1.8-1.4-3-1.4c-1.2,0-2.2,0.5-3,1.4C168.9,19.2,168.5,20.6,168.5,22.4z"/>
		<path class="recolor-1" d="M180.1,22.4c0-2.7,0.7-4.7,2.2-5.9c1.2-1.1,2.8-1.6,4.5-1.6c2,0,3.6,0.7,4.9,2c1.3,1.3,1.9,3.1,1.9,5.4
			c0,1.9-0.3,3.3-0.8,4.4c-0.6,1.1-1.4,1.9-2.4,2.5c-1.1,0.6-2.2,0.9-3.5,0.9c-2,0-3.7-0.6-4.9-1.9
			C180.7,26.7,180.1,24.9,180.1,22.4z M182.6,22.4c0,1.9,0.4,3.2,1.2,4.2c0.8,0.9,1.8,1.4,3,1.4c1.2,0,2.2-0.5,3-1.4
			c0.8-0.9,1.2-2.3,1.2-4.2c0-1.8-0.4-3.1-1.2-4.1c-0.8-0.9-1.8-1.4-3-1.4c-1.2,0-2.2,0.5-3,1.4C183,19.2,182.6,20.6,182.6,22.4z"/>
		<path class="recolor-1" d="M195.1,29.7V15.2h2.2v2c0.5-0.7,1.1-1.3,1.8-1.7c0.8-0.4,1.6-0.6,2.6-0.6c1.1,0,1.9,0.2,2.6,0.7
			c0.7,0.4,1.2,1.1,1.4,1.9c1.1-1.7,2.6-2.5,4.5-2.5c1.4,0,2.5,0.4,3.3,1.2c0.8,0.8,1.2,2,1.2,3.7v9.9h-2.4v-9.1
			c0-1-0.1-1.7-0.2-2.1c-0.2-0.4-0.4-0.8-0.9-1c-0.4-0.3-0.9-0.4-1.5-0.4c-1,0-1.9,0.3-2.5,1c-0.7,0.7-1,1.8-1,3.2v8.4h-2.4v-9.4
			c0-1.1-0.2-1.9-0.6-2.4c-0.4-0.5-1.1-0.8-2-0.8c-0.7,0-1.3,0.2-1.9,0.5c-0.6,0.4-1,0.9-1.3,1.6c-0.3,0.7-0.4,1.7-0.4,3v7.5H195.1z
			"/>
	</g>
</g>
</svg>
