<?xml version="1.0" encoding="utf-8"?>
<!-- Generator: Adobe Illustrator 24.2.3, SVG Export Plug-In . SVG Version: 6.00 Build 0)  -->
<svg version="1.1" id="Clouds" xmlns="http://www.w3.org/2000/svg" xmlns:xlink="http://www.w3.org/1999/xlink" x="0px" y="0px"
	 viewBox="0 0 959 343.68" style="enable-background:new 0 0 959 343.68;" xml:space="preserve">
<style type="text/css">
	.cloud-stripe-st0{fill:#89CBD6;}
	.cloud-stripe-st1{fill:#72B1C4;}
</style>
<g>
	<g>
		<g transform="translate(0 -802.36)">
			<path class="cloud-stripe-st0" d="M129.29,1110.67c-8.66-1.08-17.75-6.21-21.48-12.1c-0.63-1-1.2-1.89-1.26-1.97
				c-0.06-0.08-0.98,0.38-2.05,1.03s-2.67,1.49-3.57,1.87c-4.3,1.85-12.49,2.47-17,1.29c-7.07-1.84-13.17-7.59-15.66-14.78
				c-1.25-3.6-1.52-10.76-0.59-15.47c0.73-3.7,3.05-8.96,5.03-11.43c4.74-5.88,13.96-9.81,25.38-10.81
				c2.67-0.24,5.43-0.51,6.11-0.61l1.25-0.18l-1.05-2.12c-0.91-1.84-1.05-2.64-1.05-6.01c0-3.83,0.03-3.94,1.96-7.84
				c2.39-4.81,5.33-7.91,9.44-9.97c2.56-1.28,3.06-1.39,6.42-1.37c2.95,0.02,3.98,0.19,5.38,0.92c0.95,0.5,1.91,0.79,2.13,0.66
				s0.39-1.04,0.39-2.01c0-4.68,2.73-12.64,5.83-16.98c2.57-3.6,5.51-6.1,9.38-7.97c4.02-1.95,7.74-2.79,12.35-2.8
				c13.38-0.03,24.33,11.16,26.77,27.34c0.27,1.78,0.53,3.29,0.57,3.35s1.25-0.25,2.68-0.69c3.53-1.08,8.82-1.58,12.65-1.21
				c6.96,0.68,12.29,3.28,16.21,7.91c3.89,4.58,5.8,8.98,7.01,16.12l0.71,4.23l1.64-0.84c6.79-3.47,18.31-2.12,27.02,3.17
				c3.12,1.9,8.04,6.55,9.92,9.39c4.85,7.31,5.02,16.5,0.48,25.62c-1.37,2.74-2.46,4.2-5.39,7.14c-3.14,3.15-4.23,3.97-7.51,5.55
				c-2.11,1.02-4.75,2.07-5.86,2.33c-3.41,0.79-8.89,0.63-12.92-0.38c-4.64-1.17-6.84-2.31-9.49-4.92c-1.18-1.16-2.2-2.05-2.25-1.97
				c-1.56,2.16-5.58,6.77-7.13,8.16c-8.9,8-21.32,10.04-31.23,5.13c-5.26-2.61-10.37-7.3-13.24-12.17
				c-0.38-0.64-0.79-1.16-0.91-1.16c-0.12,0.01-0.85,1.13-1.63,2.49C158.83,1106.98,144.66,1112.59,129.29,1110.67L129.29,1110.67z"
				/>
		</g>
		<g transform="translate(0 -802.36)">
			<path class="cloud-stripe-st0" d="M374.79,1031.75c-4.58-0.57-9.39-3.28-11.37-6.4c-0.34-0.53-0.64-1-0.67-1.04c-0.03-0.04-0.52,0.2-1.09,0.54
				c-0.57,0.34-1.41,0.79-1.89,0.99c-2.28,0.98-6.61,1.31-9,0.68c-3.74-0.97-6.97-4.02-8.29-7.82c-0.66-1.91-0.81-5.69-0.31-8.19
				c0.39-1.96,1.61-4.74,2.66-6.04c2.51-3.11,7.38-5.19,13.43-5.72c1.41-0.12,2.87-0.27,3.23-0.32l0.66-0.1l-0.56-1.12
				c-0.48-0.97-0.56-1.4-0.56-3.18c0-2.03,0.01-2.09,1.04-4.15c1.26-2.54,2.82-4.19,5-5.28c1.36-0.68,1.62-0.73,3.4-0.72
				c1.56,0.01,2.1,0.1,2.85,0.49c0.51,0.26,1.01,0.42,1.13,0.35s0.21-0.55,0.21-1.07c0-2.48,1.45-6.69,3.09-8.98
				c1.36-1.91,2.91-3.23,4.96-4.22c2.13-1.03,4.09-1.48,6.53-1.48c7.08-0.01,12.87,5.9,14.16,14.47c0.14,0.94,0.28,1.74,0.3,1.77
				c0.02,0.03,0.66-0.13,1.42-0.36c1.87-0.57,4.67-0.84,6.7-0.64c3.68,0.36,6.5,1.74,8.58,4.18c2.06,2.42,3.07,4.75,3.71,8.53
				l0.38,2.24l0.87-0.44c3.59-1.84,9.69-1.12,14.29,1.68c1.65,1,4.25,3.46,5.25,4.97c2.57,3.87,2.66,8.73,0.25,13.56
				c-0.72,1.45-1.3,2.22-2.85,3.78c-1.66,1.67-2.24,2.1-3.97,2.94c-1.12,0.54-2.51,1.1-3.1,1.23c-1.8,0.42-4.71,0.33-6.83-0.2
				c-2.45-0.62-3.62-1.22-5.02-2.6c-0.62-0.62-1.16-1.08-1.19-1.04c-0.82,1.14-2.95,3.58-3.77,4.32
				c-4.71,4.23-11.28,5.31-16.52,2.71c-2.78-1.38-5.48-3.86-7.01-6.44c-0.2-0.34-0.42-0.62-0.48-0.61c-0.06,0-0.45,0.6-0.86,1.32
				C390.42,1029.79,382.93,1032.76,374.79,1031.75L374.79,1031.75z"/>
		</g>
		<g transform="translate(0 -802.36)">
			<path class="cloud-stripe-st1" d="M833.15,1052c-3.73-0.47-7.65-2.67-9.26-5.21c-0.27-0.43-0.52-0.81-0.54-0.85
				c-0.03-0.04-0.42,0.16-0.88,0.44c-0.46,0.28-1.15,0.64-1.54,0.81c-1.85,0.8-5.38,1.06-7.32,0.56c-3.05-0.79-5.67-3.27-6.75-6.37
				c-0.54-1.55-0.66-4.64-0.25-6.67c0.32-1.59,1.31-3.86,2.17-4.92c2.04-2.53,6.01-4.23,10.93-4.66c1.15-0.1,2.34-0.22,2.63-0.26
				l0.54-0.08l-0.45-0.91c-0.39-0.79-0.45-1.14-0.45-2.59c0-1.65,0.01-1.7,0.85-3.38c1.03-2.07,2.3-3.41,4.07-4.3
				c1.1-0.55,1.32-0.6,2.77-0.59c1.27,0.01,1.71,0.08,2.32,0.4c0.41,0.21,0.82,0.34,0.92,0.28c0.09-0.06,0.17-0.45,0.17-0.87
				c0-2.02,1.18-5.45,2.51-7.32c1.11-1.55,2.37-2.63,4.04-3.44c1.73-0.84,3.33-1.2,5.32-1.21c5.76-0.01,10.48,4.81,11.53,11.78
				c0.12,0.77,0.23,1.42,0.25,1.44c0.02,0.03,0.54-0.11,1.15-0.3c1.52-0.46,3.8-0.68,5.45-0.52c3,0.29,5.29,1.41,6.99,3.41
				c1.68,1.97,2.5,3.87,3.02,6.95l0.31,1.82l0.71-0.36c2.92-1.5,7.89-0.91,11.64,1.36c1.34,0.82,3.46,2.82,4.28,4.05
				c2.09,3.15,2.16,7.11,0.21,11.04c-0.59,1.18-1.06,1.81-2.32,3.08c-1.35,1.36-1.82,1.71-3.24,2.39c-0.91,0.44-2.05,0.89-2.53,1
				c-1.47,0.34-3.83,0.27-5.57-0.16c-2-0.5-2.95-0.99-4.09-2.12c-0.51-0.5-0.95-0.88-0.97-0.85c-0.67,0.93-2.41,2.92-3.07,3.52
				c-3.83,3.45-9.19,4.32-13.45,2.21c-2.27-1.12-4.47-3.15-5.71-5.24c-0.16-0.28-0.34-0.5-0.39-0.5c-0.05,0-0.37,0.49-0.7,1.07
				C845.87,1050.41,839.77,1052.83,833.15,1052L833.15,1052z"/>
		</g>
		<g transform="translate(0 -802.36)">
			<path class="cloud-stripe-st0" d="M602.2,1142.54c-10.31,1.29-19.82-2.48-23.79-9.43c-0.52-0.92-1.02-1.67-1.1-1.67
				c-0.08,0-0.35,0.35-0.61,0.78c-1.93,3.27-5.35,6.42-8.89,8.17c-6.64,3.3-14.98,1.93-20.95-3.44c-1.04-0.93-3.74-4.03-4.78-5.48
				c-0.04-0.05-0.72,0.54-1.51,1.32c-1.78,1.75-3.26,2.52-6.37,3.3c-2.7,0.68-6.38,0.79-8.67,0.26c-0.75-0.17-2.52-0.88-3.93-1.56
				c-2.2-1.06-2.94-1.61-5.04-3.73c-1.96-1.98-2.7-2.95-3.62-4.79c-3.05-6.12-2.93-12.29,0.32-17.19c1.27-1.91,4.56-5.03,6.66-6.3
				c5.84-3.55,13.57-4.45,18.13-2.13l1.1,0.56l0.48-2.84c0.81-4.8,2.09-7.74,4.7-10.82c2.64-3.11,6.21-4.85,10.88-5.31
				c2.57-0.25,6.13,0.09,8.49,0.81c0.96,0.29,1.77,0.5,1.8,0.46c0.03-0.04,0.2-1.05,0.38-2.25c1.64-10.86,8.99-18.37,17.96-18.35
				c3.09,0.01,5.59,0.57,8.29,1.88c2.6,1.26,4.57,2.93,6.29,5.35c2.08,2.91,3.91,8.25,3.91,11.39c0,0.65,0.12,1.26,0.26,1.35
				s0.79-0.11,1.43-0.44c0.94-0.49,1.63-0.61,3.61-0.62c2.26-0.01,2.59,0.06,4.31,0.92c2.76,1.38,4.73,3.46,6.34,6.69
				c1.3,2.61,1.32,2.69,1.32,5.26c0,2.26-0.09,2.8-0.7,4.03l-0.7,1.42l0.84,0.12c0.46,0.07,2.31,0.25,4.1,0.41
				c7.66,0.68,13.85,3.31,17.03,7.26c1.33,1.65,2.89,5.18,3.38,7.67c0.63,3.16,0.44,7.96-0.4,10.38c-1.67,4.82-5.76,8.68-10.51,9.91
				c-3.03,0.79-8.52,0.37-11.41-0.87c-0.6-0.26-1.67-0.82-2.39-1.25c-0.72-0.43-1.34-0.74-1.38-0.69c-0.04,0.05-0.42,0.65-0.85,1.32
				C614.11,1138.38,608,1141.81,602.2,1142.54L602.2,1142.54z"/>
		</g>
	</g>
	<g>
		<g transform="translate(0 -802.36)">
			<path class="cloud-stripe-st0" d="M829.71,921.68c-15.37,1.92-29.53-3.69-35.45-14.05c-0.78-1.36-1.52-2.49-1.63-2.49s-0.53,0.51-0.91,1.16
				c-2.88,4.87-7.98,9.56-13.24,12.17c-9.9,4.91-22.33,2.87-31.23-5.13c-1.55-1.39-5.57-6-7.13-8.16c-0.06-0.08-1.07,0.81-2.25,1.97
				c-2.65,2.61-4.85,3.75-9.49,4.92c-4.02,1.01-9.51,1.18-12.92,0.38c-1.11-0.26-3.75-1.31-5.86-2.33c-3.27-1.59-4.37-2.4-7.51-5.55
				c-2.93-2.94-4.02-4.4-5.39-7.14c-4.54-9.12-4.37-18.32,0.48-25.62c1.89-2.84,6.8-7.49,9.92-9.39c8.71-5.29,20.23-6.64,27.02-3.17
				l1.64,0.84l0.71-4.23c1.21-7.15,3.12-11.54,7.01-16.12c3.93-4.63,9.26-7.23,16.21-7.91c3.83-0.37,9.13,0.13,12.65,1.21
				c1.43,0.44,2.63,0.74,2.68,0.69s0.3-1.57,0.57-3.35c2.44-16.18,13.39-27.37,26.77-27.34c4.61,0.01,8.33,0.85,12.35,2.8
				c3.87,1.87,6.81,4.37,9.38,7.97c3.1,4.34,5.83,12.3,5.83,16.98c0,0.98,0.18,1.88,0.39,2.01c0.22,0.13,1.17-0.16,2.13-0.66
				c1.41-0.73,2.43-0.91,5.38-0.92c3.36-0.02,3.86,0.09,6.42,1.37c4.11,2.06,7.06,5.16,9.44,9.97c1.93,3.9,1.96,4,1.96,7.84
				c0,3.37-0.14,4.17-1.05,6.01l-1.05,2.12l1.25,0.18c0.69,0.1,3.44,0.37,6.11,0.61c11.42,1.01,20.64,4.93,25.38,10.82
				c1.98,2.46,4.3,7.72,5.03,11.42c0.93,4.71,0.66,11.87-0.59,15.47c-2.49,7.18-8.59,12.93-15.66,14.78
				c-4.51,1.18-12.7,0.55-17-1.29c-0.89-0.38-2.5-1.22-3.57-1.87s-1.99-1.11-2.05-1.03s-0.63,0.97-1.26,1.97
				C847.46,915.48,838.37,920.6,829.71,921.68L829.71,921.68z"/>
		</g>
		<g transform="translate(0 -802.36)">
			<path class="cloud-stripe-st0" d="M523.35,922.57c-8.13,1.02-15.63-1.95-18.76-7.44c-0.41-0.72-0.8-1.32-0.86-1.32
				c-0.06,0-0.28,0.27-0.48,0.61c-1.52,2.58-4.22,5.06-7.01,6.44c-5.24,2.6-11.82,1.52-16.52-2.71c-0.82-0.74-2.95-3.18-3.77-4.32
				c-0.03-0.04-0.57,0.43-1.19,1.04c-1.4,1.38-2.57,1.98-5.02,2.6c-2.13,0.54-5.03,0.62-6.83,0.2c-0.59-0.14-1.99-0.69-3.1-1.23
				c-1.73-0.84-2.31-1.27-3.97-2.94c-1.55-1.56-2.13-2.33-2.85-3.78c-2.4-4.83-2.31-9.69,0.25-13.56c1-1.5,3.6-3.96,5.25-4.97
				c4.61-2.8,10.7-3.51,14.29-1.68l0.87,0.44l0.38-2.24c0.64-3.78,1.65-6.11,3.71-8.53c2.08-2.45,4.9-3.83,8.58-4.18
				c2.03-0.2,4.83,0.07,6.7,0.64c0.75,0.23,1.39,0.39,1.42,0.36c0.02-0.03,0.16-0.83,0.3-1.77c1.29-8.56,7.09-14.48,14.16-14.47
				c2.44,0,4.41,0.45,6.53,1.48c2.05,0.99,3.6,2.31,4.96,4.22c1.64,2.3,3.09,6.51,3.09,8.98c0,0.52,0.09,1,0.21,1.07
				c0.11,0.07,0.62-0.09,1.13-0.35c0.74-0.39,1.29-0.48,2.85-0.49c1.78-0.01,2.04,0.05,3.4,0.72c2.18,1.09,3.73,2.73,5,5.28
				c1.02,2.06,1.04,2.12,1.04,4.15c0,1.78-0.07,2.21-0.56,3.18l-0.56,1.12l0.66,0.1c0.36,0.05,1.82,0.2,3.23,0.32
				c6.04,0.53,10.92,2.61,13.43,5.72c1.05,1.3,2.28,4.09,2.66,6.04c0.49,2.49,0.35,6.28-0.31,8.19c-1.32,3.8-4.54,6.84-8.29,7.82
				c-2.39,0.62-6.72,0.29-9-0.68c-0.47-0.2-1.32-0.65-1.89-0.99s-1.05-0.59-1.09-0.54c-0.03,0.04-0.33,0.51-0.67,1.04
				C532.74,919.29,527.93,922,523.35,922.57L523.35,922.57z"/>
		</g>
		<g transform="translate(0 -802.36)">
			<path class="cloud-stripe-st1" d="M125.85,863.01c-6.62,0.83-12.72-1.59-15.27-6.06c-0.34-0.59-0.65-1.07-0.7-1.07c-0.05,0-0.23,0.22-0.39,0.5
				c-1.24,2.1-3.44,4.12-5.71,5.24c-4.27,2.12-9.62,1.24-13.45-2.21c-0.67-0.6-2.4-2.59-3.07-3.52c-0.02-0.03-0.46,0.35-0.97,0.85
				c-1.14,1.12-2.09,1.62-4.09,2.12c-1.73,0.44-4.1,0.51-5.57,0.16c-0.48-0.11-1.62-0.56-2.53-1c-1.41-0.68-1.88-1.03-3.24-2.39
				c-1.26-1.27-1.73-1.89-2.32-3.08c-1.96-3.93-1.88-7.89,0.21-11.04c0.81-1.22,2.93-3.23,4.28-4.05c3.75-2.28,8.72-2.86,11.64-1.37
				l0.71,0.36l0.31-1.82c0.52-3.08,1.34-4.97,3.02-6.95c1.69-1.99,3.99-3.11,6.99-3.41c1.65-0.16,3.93,0.06,5.45,0.52
				c0.61,0.19,1.13,0.32,1.15,0.3c0.02-0.03,0.13-0.67,0.25-1.44c1.05-6.97,5.77-11.79,11.53-11.78c1.99,0,3.59,0.37,5.32,1.21
				c1.67,0.81,2.93,1.88,4.04,3.44c1.33,1.87,2.51,5.3,2.51,7.32c0,0.42,0.08,0.81,0.17,0.87c0.09,0.06,0.51-0.07,0.92-0.28
				c0.61-0.31,1.05-0.39,2.32-0.4c1.45-0.01,1.66,0.04,2.77,0.59c1.77,0.89,3.04,2.22,4.07,4.3c0.83,1.68,0.85,1.73,0.85,3.38
				c0,1.45-0.06,1.8-0.45,2.59l-0.45,0.91l0.54,0.08c0.3,0.04,1.48,0.16,2.63,0.26c4.92,0.43,8.89,2.13,10.93,4.66
				c0.85,1.06,1.85,3.33,2.17,4.92c0.4,2.03,0.28,5.11-0.25,6.67c-1.07,3.09-3.7,5.57-6.75,6.37c-1.94,0.51-5.47,0.24-7.32-0.56
				c-0.38-0.16-1.08-0.53-1.54-0.81s-0.86-0.48-0.88-0.44c-0.03,0.04-0.27,0.42-0.54,0.85C133.5,860.34,129.58,862.55,125.85,863.01
				L125.85,863.01z"/>
		</g>
	</g>
</g>
</svg>
