<?xml version="1.0" encoding="utf-8"?>
<!-- Generator: Adobe Illustrator 28.2.0, SVG Export Plug-In . SVG Version: 6.00 Build 0)  -->
<svg version="1.1" id="Layer_1" xmlns="http://www.w3.org/2000/svg" xmlns:xlink="http://www.w3.org/1999/xlink" x="0px" y="0px"
	 viewBox="0 0 320.7 46.8" style="enable-background:new 0 0 320.7 46.8;" xml:space="preserve">
<style type="text/css">
	.st0{fill:#5CA9DD;stroke:#5DA8DC;stroke-miterlimit:10;}
	.st1{fill:#6EB5E4;}
	.st2{fill:#5CA9DD;}
</style>
<path class="st0" d="M75.5,24.1l-9.1-14h6.5l6.1,10.1H79l6-10.1h6.4l-9.2,13.8l9.1,14.1H85l-6.2-10.3h-0.1l-6.2,10.3h-6.2L75.5,24.1
	z"/>
<g>
	<path class="st1" d="M112.5,2.1h3.4v16h21v-16h3.4v36h-3.4V21.2h-21v16.9h-3.4V2.1z"/>
	<path class="st1" d="M154,36.9c-1.8-1.1-3.2-2.6-4.1-4.6c-1-2-1.5-4.4-1.5-7.1v0c0-2.7,0.5-5.1,1.5-7.1c1-2,2.4-3.5,4.1-4.6
		c1.8-1.1,3.8-1.6,6.2-1.6c2.4,0,4.4,0.5,6.2,1.6c1.8,1.1,3.2,2.6,4.1,4.6c1,2,1.5,4.4,1.5,7.1v0c0,2.8-0.5,5.1-1.5,7.1
		c-1,2-2.4,3.6-4.1,4.6c-1.8,1.1-3.8,1.6-6.2,1.6C157.9,38.5,155.8,38,154,36.9z M164.7,34.4c1.3-0.8,2.2-2,2.9-3.6
		c0.7-1.6,1-3.5,1-5.6v0c0-2.2-0.3-4.1-1-5.6c-0.7-1.6-1.7-2.8-3-3.6c-1.3-0.8-2.8-1.2-4.5-1.2c-1.7,0-3.1,0.4-4.4,1.2
		c-1.3,0.8-2.2,2-3,3.6c-0.7,1.6-1.1,3.4-1.1,5.6v0c0,2.2,0.4,4.1,1.1,5.6c0.7,1.6,1.7,2.8,3,3.6c1.3,0.8,2.7,1.2,4.5,1.2
		C161.9,35.6,163.4,35.2,164.7,34.4z"/>
	<path class="st1" d="M182.6,37c-1.1-1.1-1.6-2.7-1.6-5V14.9h-3.8v-2.8h3.8v-7h3.4v7h5.1v2.8h-5.1v17c0,1.4,0.3,2.4,0.9,3
		c0.6,0.6,1.5,0.8,2.7,0.8c0.3,0,0.6,0,0.8,0c0.3,0,0.5,0,0.7-0.1v2.7c-0.2,0-0.6,0.1-1,0.1c-0.4,0-0.8,0.1-1.2,0.1
		C185.2,38.6,183.6,38,182.6,37z"/>
	<path class="st1" d="M201.1,37.6c-1.5-0.7-2.6-1.6-3.5-2.7c-0.9-1.2-1.4-2.5-1.5-4l0-0.2h3.3l0,0.2c0.3,1.5,1,2.7,2.2,3.6
		c1.2,0.9,2.7,1.3,4.7,1.3c1.3,0,2.5-0.2,3.4-0.5c1-0.4,1.7-0.9,2.2-1.6c0.5-0.7,0.8-1.5,0.8-2.4v0c0-1.1-0.3-2-1-2.7
		c-0.7-0.7-1.9-1.2-3.7-1.6L204,26c-1.6-0.4-3-0.9-4-1.5c-1.1-0.6-1.9-1.4-2.4-2.3c-0.5-0.9-0.8-1.9-0.8-3.1v0
		c0-1.4,0.4-2.7,1.2-3.8c0.8-1.1,1.9-2,3.3-2.6c1.4-0.6,3-0.9,4.8-0.9c1.8,0,3.5,0.3,4.8,1s2.5,1.6,3.3,2.7c0.8,1.2,1.3,2.5,1.4,4
		l0,0.3h-3.1l0-0.2c-0.2-1.5-0.9-2.7-2-3.6c-1.1-0.9-2.6-1.4-4.4-1.4c-1.2,0-2.2,0.2-3.1,0.6c-0.9,0.4-1.6,0.9-2,1.6
		c-0.5,0.7-0.7,1.4-0.7,2.3v0c0,0.7,0.2,1.3,0.5,1.8c0.3,0.5,0.8,1,1.5,1.4c0.7,0.4,1.6,0.7,2.8,1l3.9,0.9c2.6,0.6,4.4,1.5,5.5,2.6
		c1.1,1.1,1.6,2.5,1.6,4.3v0c0,1.5-0.4,2.8-1.3,3.9c-0.8,1.1-2,2-3.5,2.7c-1.5,0.6-3.2,1-5,1C204.3,38.6,202.5,38.2,201.1,37.6z"/>
	<path class="st1" d="M223.6,12.2h3.3v5.5h0.1c0.5-1.2,1.1-2.2,2-3.1c0.8-0.9,1.9-1.6,3-2.1c1.2-0.5,2.4-0.8,3.8-0.8
		c2.2,0,4.1,0.6,5.8,1.7c1.6,1.1,2.9,2.7,3.9,4.7s1.4,4.4,1.4,7.1v0c0,2.7-0.5,5.1-1.4,7.1s-2.2,3.6-3.8,4.7s-3.5,1.7-5.7,1.7
		c-1.4,0-2.7-0.2-3.8-0.7c-1.2-0.5-2.2-1.2-3-2.1c-0.9-0.9-1.5-1.9-2-3.1h-0.1v14.2h-3.3V12.2z M239.6,34.3c1.2-0.9,2.2-2.1,2.9-3.7
		s1-3.4,1-5.5v0c0-2.1-0.3-4-1-5.6c-0.7-1.6-1.6-2.8-2.9-3.6c-1.2-0.9-2.7-1.3-4.3-1.3c-1.6,0-3.1,0.4-4.3,1.3
		c-1.3,0.9-2.2,2.1-3,3.7c-0.7,1.6-1.1,3.4-1.1,5.5v0c0,2.1,0.4,3.9,1.1,5.5s1.7,2.8,3,3.7c1.3,0.9,2.7,1.3,4.3,1.3
		C236.9,35.6,238.4,35.2,239.6,34.3z"/>
	<path class="st1" d="M258.8,36.9c-1.8-1.1-3.2-2.6-4.1-4.6c-1-2-1.5-4.4-1.5-7.1v0c0-2.7,0.5-5.1,1.5-7.1c1-2,2.4-3.5,4.1-4.6
		c1.8-1.1,3.8-1.6,6.2-1.6c2.4,0,4.4,0.5,6.2,1.6c1.8,1.1,3.2,2.6,4.1,4.6c1,2,1.5,4.4,1.5,7.1v0c0,2.8-0.5,5.1-1.5,7.1
		c-1,2-2.4,3.6-4.1,4.6c-1.8,1.1-3.8,1.6-6.2,1.6C262.6,38.5,260.5,38,258.8,36.9z M269.4,34.4c1.3-0.8,2.2-2,2.9-3.6
		c0.7-1.6,1-3.5,1-5.6v0c0-2.2-0.3-4.1-1-5.6c-0.7-1.6-1.7-2.8-3-3.6c-1.3-0.8-2.8-1.2-4.5-1.2c-1.7,0-3.1,0.4-4.4,1.2
		c-1.3,0.8-2.2,2-3,3.6c-0.7,1.6-1.1,3.4-1.1,5.6v0c0,2.2,0.4,4.1,1.1,5.6c0.7,1.6,1.7,2.8,3,3.6s2.7,1.2,4.5,1.2
		C266.7,35.6,268.1,35.2,269.4,34.4z"/>
	<path class="st1" d="M287.3,37c-1.1-1.1-1.6-2.7-1.6-5V14.9h-3.8v-2.8h3.8v-7h3.4v7h5.1v2.8h-5.1v17c0,1.4,0.3,2.4,0.9,3
		c0.6,0.6,1.5,0.8,2.7,0.8c0.3,0,0.6,0,0.8,0c0.3,0,0.5,0,0.7-0.1v2.7c-0.2,0-0.6,0.1-1,0.1c-0.4,0-0.8,0.1-1.2,0.1
		C289.9,38.6,288.4,38,287.3,37z"/>
	<path class="st1" d="M305.8,37.6c-1.5-0.7-2.6-1.6-3.5-2.7c-0.9-1.2-1.4-2.5-1.5-4l0-0.2h3.3l0,0.2c0.3,1.5,1,2.7,2.2,3.6
		c1.2,0.9,2.7,1.3,4.7,1.3c1.3,0,2.5-0.2,3.4-0.5c1-0.4,1.7-0.9,2.2-1.6s0.8-1.5,0.8-2.4v0c0-1.1-0.3-2-1-2.7
		c-0.7-0.7-1.9-1.2-3.7-1.6l-3.9-0.9c-1.6-0.4-3-0.9-4-1.5c-1.1-0.6-1.9-1.4-2.4-2.3s-0.8-1.9-0.8-3.1v0c0-1.4,0.4-2.7,1.2-3.8
		s1.9-2,3.3-2.6c1.4-0.6,3-0.9,4.8-0.9c1.8,0,3.5,0.3,4.8,1c1.4,0.7,2.5,1.6,3.3,2.7c0.8,1.2,1.3,2.5,1.4,4l0,0.3h-3.1l0-0.2
		c-0.2-1.5-0.9-2.7-2-3.6c-1.1-0.9-2.6-1.4-4.4-1.4c-1.2,0-2.2,0.2-3.1,0.6c-0.9,0.4-1.6,0.9-2,1.6c-0.5,0.7-0.7,1.4-0.7,2.3v0
		c0,0.7,0.2,1.3,0.5,1.8c0.3,0.5,0.8,1,1.5,1.4c0.7,0.4,1.6,0.7,2.8,1l3.9,0.9c2.6,0.6,4.4,1.5,5.5,2.6c1.1,1.1,1.6,2.5,1.6,4.3v0
		c0,1.5-0.4,2.8-1.3,3.9c-0.8,1.1-2,2-3.5,2.7c-1.5,0.6-3.2,1-5,1C309,38.6,307.3,38.2,305.8,37.6z"/>
</g>
<g>
	<path class="st2" d="M19,0c5.3,0,9.2,1.7,12.8,4.9c0.5,0.4,0.5,1.1,0.1,1.5l-3.2,3.3c-0.4,0.4-0.9,0.4-1.3,0
		c-2.2-2-5.2-3.1-8.1-3.1c-6.8,0-11.8,5.6-11.8,12.3c0,6.6,5.1,12.2,11.8,12.2c3.2,0,5.9-1.2,8.1-3c0.4-0.4,1-0.3,1.3,0l3.3,3.4
		c0.4,0.4,0.3,1.1-0.1,1.4C28.3,36.3,23.7,38,19,38C8.5,38,0,29.6,0,19C0,8.5,8.5,0,19,0z"/>
	<path class="st2" d="M51,9.1c7.8,0,14.1,6.6,14.1,14.4C65.1,31.4,58.8,38,51,38c-7.8,0-14.1-6.6-14.1-14.5
		C36.9,15.7,43.2,9.1,51,9.1z M51,30.6c3.6,0,6.6-3.2,6.6-7.1c0-3.9-3-6.9-6.6-6.9c-3.7,0-6.6,3.1-6.6,6.9
		C44.4,27.4,47.3,30.6,51,30.6z"/>
</g>
</svg>
