<?xml version="1.0" encoding="utf-8"?>
<!-- Generator: Adobe Illustrator 24.2.3, SVG Export Plug-In . SVG Version: 6.00 Build 0)  -->
<svg version="1.1" id="Layer_1" xmlns="http://www.w3.org/2000/svg" xmlns:xlink="http://www.w3.org/1999/xlink" x="0px" y="0px"
	 viewBox="0 0 114.39 70.5" xml:space="preserve">
<g>
	<line class="recolor-1" x1="12.3" y1="56.28" x2="12.3" y2="49.91"/>
	<path class="recolor-1" d="M12.3,58.28c-1.1,0-2-0.9-2-2v-6.37c0-1.1,0.9-2,2-2s2,0.9,2,2v6.37C14.3,57.38,13.41,58.28,12.3,58.28z"/>
</g>
<g>
	<line class="recolor-1" x1="20.37" y1="56.28" x2="20.37" y2="45.56"/>
	<path class="recolor-1" d="M20.37,58.28c-1.1,0-2-0.9-2-2V45.56c0-1.1,0.9-2,2-2s2,0.9,2,2v10.72C22.37,57.38,21.47,58.28,20.37,58.28z"
		/>
</g>
<g>
	<line class="recolor-1" x1="28.27" y1="56.28" x2="28.27" y2="50.56"/>
	<path class="recolor-1" d="M28.27,58.28c-1.1,0-2-0.9-2-2v-5.72c0-1.1,0.9-2,2-2s2,0.9,2,2v5.72C30.27,57.38,29.37,58.28,28.27,58.28z"/>
</g>
<g>
	<line class="recolor-1" x1="36.5" y1="56.28" x2="36.5" y2="35.94"/>
	<path class="recolor-1" d="M36.5,58.28c-1.1,0-2-0.9-2-2V35.94c0-1.1,0.9-2,2-2s2,0.9,2,2v20.34C38.5,57.38,37.6,58.28,36.5,58.28z"/>
</g>
<g>
	<line class="recolor-1" x1="45.06" y1="56.28" x2="45.06" y2="43.81"/>
	<path class="recolor-1" d="M45.06,58.28c-1.1,0-2-0.9-2-2V43.81c0-1.1,0.9-2,2-2s2,0.9,2,2v12.47C47.06,57.38,46.16,58.28,45.06,58.28z"
		/>
</g>
<g>
	<line class="recolor-1" x1="53.21" y1="56.28" x2="53.21" y2="40.51"/>
	<path class="recolor-1" d="M53.21,58.28c-1.1,0-2-0.9-2-2V40.51c0-1.1,0.9-2,2-2s2,0.9,2,2v15.77C55.21,57.38,54.31,58.28,53.21,58.28z"
		/>
</g>
<g>
	<line class="recolor-1" x1="61.6" y1="56.28" x2="61.6" y2="40.86"/>
	<path class="recolor-1" d="M61.6,58.28c-1.1,0-2-0.9-2-2V40.86c0-1.1,0.9-2,2-2s2,0.9,2,2v15.42C63.6,57.38,62.71,58.28,61.6,58.28z"/>
</g>
<g>
	<line class="recolor-1" x1="69.42" y1="56.28" x2="69.42" y2="31.42"/>
	<path class="recolor-1" d="M69.42,58.28c-1.1,0-2-0.9-2-2V31.42c0-1.1,0.9-2,2-2s2,0.9,2,2v24.86C71.42,57.38,70.52,58.28,69.42,58.28z"
		/>
</g>
<g>
	<line class="recolor-1" x1="77.73" y1="56.28" x2="77.73" y2="26.76"/>
	<path class="recolor-1" d="M77.73,58.28c-1.1,0-2-0.9-2-2V26.76c0-1.1,0.9-2,2-2s2,0.9,2,2v29.52C79.73,57.38,78.84,58.28,77.73,58.28z"
		/>
</g>
<g>
	<path class="recolor-1" d="M9.81,44.98c-0.69,0-1.36-0.36-1.73-1c-0.55-0.96-0.22-2.18,0.73-2.73L35.5,25.87
		c0.74-0.43,1.67-0.34,2.31,0.22l7.16,6.22l25.27-14.43c0.96-0.55,2.18-0.21,2.73,0.75c0.55,0.96,0.21,2.18-0.74,2.73L45.72,36.49
		c-0.74,0.42-1.66,0.33-2.3-0.23l-7.15-6.21L10.81,44.71C10.49,44.9,10.15,44.98,9.81,44.98z"/>
</g>
<g>
	<path class="recolor-1" d="M93.94,22.95c-0.53,0-1.06-0.21-1.45-0.62l-3.66-3.82c-0.76-0.8-0.74-2.06,0.06-2.83
		c0.8-0.76,2.06-0.74,2.83,0.06l2.43,2.54l6.06-4.58c0.88-0.67,2.14-0.49,2.8,0.39c0.67,0.88,0.49,2.14-0.39,2.8l-7.48,5.65
		C94.79,22.82,94.37,22.95,93.94,22.95z"/>
</g>
<g>
	<path class="recolor-1" d="M99.37,40.41h-8.13c-0.83,0-1.5-0.67-1.5-1.5v-8.56c0-0.83,0.67-1.5,1.5-1.5h8.13c0.83,0,1.5,0.67,1.5,1.5
		v8.56C100.87,39.74,100.2,40.41,99.37,40.41z M92.75,37.41h5.13v-5.56h-5.13V37.41z"/>
</g>
<g>
	<path class="recolor-1" d="M99.37,57.78h-8.13c-0.83,0-1.5-0.67-1.5-1.5v-8.56c0-0.83,0.67-1.5,1.5-1.5h8.13c0.83,0,1.5,0.67,1.5,1.5
		v8.56C100.87,57.11,100.2,57.78,99.37,57.78z M92.75,54.78h5.13v-5.56h-5.13V54.78z"/>
</g>
<g>
	<circle class="recolor-1" cx="77.59" cy="16.35" r="1.77"/>
</g>
<g>
	<circle class="recolor-1" cx="61.6" cy="34.63" r="1.77"/>
</g>
<g>
	<line class="recolor-1" x1="28.27" y1="44.66" x2="28.27" y2="41.66"/>
	<path class="recolor-1" d="M28.27,46.66c-1.1,0-2-0.9-2-2v-3.01c0-1.1,0.9-2,2-2s2,0.9,2,2v3.01C30.27,45.77,29.37,46.66,28.27,46.66z"/>
</g>
</svg>
