<svg xmlns="http://www.w3.org/2000/svg" width="27.259" height="24.312" viewBox="0 0 27.259 24.312">
  <g id="Group_7961" data-name="Group 7961" transform="translate(-17493.344 9428.627)">
    <g id="Group_7098" data-name="Group 7098" transform="translate(17161.094 -9473.877)">
      <g id="Group_7097" data-name="Group 7097" transform="translate(332.25 45.25)">
        <g id="Group_7096" data-name="Group 7096">
          <g id="Group_7089" data-name="Group 7089" transform="translate(19.646 11.788)">
            <g id="Group_7088" data-name="Group 7088">
              <path id="Path_10727" data-name="Path 10727" d="M378.512,69.25H373.6A1.35,1.35,0,0,0,372.25,70.6v9.823a1.35,1.35,0,0,0,1.351,1.351h4.912a1.35,1.35,0,0,0,1.351-1.351V70.6A1.35,1.35,0,0,0,378.512,69.25Zm.614,11.174a.614.614,0,0,1-.614.614H373.6a.614.614,0,0,1-.614-.614V79.81h6.139ZM372.987,70.6a.614.614,0,0,1,.614-.614h4.912a.614.614,0,0,1,.614.614v8.472h-6.139Z" transform="translate(-372.25 -69.25)" fill="#fff"/>
            </g>
          </g>
          <g id="Group_7091" data-name="Group 7091" transform="translate(11.788 5.403)">
            <g id="Group_7090" data-name="Group 7090">
              <path id="Path_10728" data-name="Path 10728" d="M369.757,57.6v3.438a.368.368,0,1,1-.737,0V57.6a.614.614,0,0,0-.614-.614H357.6a.614.614,0,0,0-.614.614V71.353a.614.614,0,0,0,.614.614h4.912a.368.368,0,1,1,0,.737H357.6a1.35,1.35,0,0,1-1.351-1.351V57.6A1.35,1.35,0,0,1,357.6,56.25h10.805A1.35,1.35,0,0,1,369.757,57.6Z" transform="translate(-356.25 -56.25)" fill="#fff"/>
            </g>
          </g>
          <g id="Group_7093" data-name="Group 7093" transform="translate(13.752 7.367)">
            <g id="Group_7092" data-name="Group 7092">
              <path id="Path_10729" data-name="Path 10729" d="M369.828,60.618v2.456a.368.368,0,0,1-.737,0V60.987h-8.1V72.038h3.561a.368.368,0,0,1,0,.737h-3.929a.371.371,0,0,1-.368-.368V60.618a.371.371,0,0,1,.368-.368h8.841A.371.371,0,0,1,369.828,60.618Z" transform="translate(-360.25 -60.25)" fill="#fff"/>
            </g>
          </g>
          <g id="Group_7095" data-name="Group 7095">
            <g id="Group_7094" data-name="Group 7094">
              <path id="Path_10730" data-name="Path 10730" d="M355.58,45.618v3.438a.368.368,0,0,1-.737,0v-3.07H334.951v14h7.49a.368.368,0,0,1,0,.737h-9.229l.172.349a1.621,1.621,0,0,0,1.429.879h7.628a.368.368,0,0,1,0,.737h-7.628a2.357,2.357,0,0,1-2.087-1.287l-.437-.884a.364.364,0,0,1,.329-.53h1.6V45.618a.371.371,0,0,1,.368-.368h20.629A.371.371,0,0,1,355.58,45.618Z" transform="translate(-332.25 -45.25)" fill="#fff"/>
            </g>
          </g>
        </g>
      </g>
    </g>
  </g>
</svg>
