<?xml version="1.0" encoding="utf-8"?>
<!-- Generator: Adobe Illustrator 24.2.3, SVG Export Plug-In . SVG Version: 6.00 Build 0)  -->
<svg version="1.1" id="Layer_1" xmlns="http://www.w3.org/2000/svg" xmlns:xlink="http://www.w3.org/1999/xlink" x="0px" y="0px"
	 viewBox="0 0 360 360" xml:space="preserve">
<g id="Group_689" transform="translate(-76.662 -221.077)">
	<g id="Group_679" transform="translate(122.662 267.077)">
		<g id="Group_678">
			<g id="Group_677">
				<path id="Path_707" class="recolor-1" d="M134,134"/>
			</g>
		</g>
	</g>
	<g id="Group_686" transform="translate(76.662 221.077)">
		<g id="Group_682">
			<g id="Group_681">
				<g id="Group_680">
					<path id="Path_708" class="recolor-1" d="M180,359.15C81.06,359.15,0.85,278.94,0.85,180S81.06,0.85,180,0.85
						S359.15,81.06,359.15,180l0,0c-0.01,4.55-3.7,8.23-8.25,8.23c-4.54-0.01-8.22-3.69-8.23-8.23
						C342.66,90.17,269.83,17.36,180,17.37C90.17,17.38,17.36,90.22,17.37,180.05s72.84,162.64,162.67,162.63
						c33.76,0,66.68-10.51,94.2-30.07c3.69-2.66,8.84-1.83,11.5,1.86c2.66,3.69,1.83,8.84-1.86,11.5c-0.03,0.02-0.05,0.04-0.08,0.06
						C253.51,347.65,217.21,359.23,180,359.15z"/>
				</g>
			</g>
		</g>
		<g id="Group_685" transform="translate(74.552 75.257)">
			<g id="Group_684">
				<g id="Group_683">
					<circle id="Ellipse_16" class="recolor-1" cx="224.88" cy="226.92" r="8.24"/>
				</g>
			</g>
		</g>
	</g>
	<g id="Group_688" transform="translate(104.611 232.837)">
		<g id="Group_687">
			<path id="Path_709" class="recolor-1" d="M160.21,45.76v14.31c8.35,0.71,16.55,2.68,24.31,5.84c6.85,2.98,12.9,7.51,17.69,13.24
				c3.75,4.15,6.85,8.84,9.21,13.92c2,4.09,3.11,8.57,3.25,13.12c0.04,4.32-1.71,8.47-4.84,11.46c-3.07,3.16-7.32,4.91-11.73,4.84
				c-8.66,0-14.27-4.68-16.83-14.05c-2.51-10.62-10.57-19.04-21.07-22v55.13c10.95,3,19.68,5.74,26.17,8.22
				c6.44,2.44,12.35,6.08,17.43,10.73c5.44,4.81,9.76,10.76,12.65,17.42c3.01,7.01,4.52,14.57,4.44,22.2
				c0.05,9.88-2.39,19.6-7.09,28.29c-4.87,8.94-12.09,16.38-20.87,21.53c-9.98,5.81-21.18,9.22-32.71,9.94v32.99
				c0.2,3.86-0.32,7.72-1.53,11.4c-1.22,2.51-3.92,3.96-6.69,3.58c-2.59,0.27-5.13-0.83-6.69-2.91c-1.47-2.76-2.14-5.89-1.92-9.01
				v-35.78c-9.38-0.89-18.54-3.35-27.1-7.29c-7.26-3.37-13.82-8.07-19.35-13.85c-4.83-5-8.71-10.84-11.46-17.23
				c-2.39-5.55-3.65-11.52-3.71-17.56c0.04-4.34,1.83-8.47,4.97-11.46c3.23-3.37,7.73-5.22,12.39-5.1
				c3.56-0.12,7.08,0.85,10.07,2.78c2.75,1.87,4.76,4.63,5.7,7.82c1.78,5.65,3.86,11.2,6.23,16.63c1.91,4.03,4.64,7.62,8.02,10.53
				c4.14,3.47,9.01,5.97,14.25,7.29v-61.63c-10.23-2.67-20.17-6.33-29.68-10.93c-7.84-3.92-14.52-9.84-19.35-17.16
				c-12.07-21.23-9.22-47.81,7.09-65.99c9.67-9.72,23.65-15.37,41.94-16.96V46.03c0-7.42,2.78-11.13,8.35-11.13
				C157.39,34.89,160.21,38.51,160.21,45.76z M143.38,136.66V85.91c-6.34,1.65-12.26,4.63-17.36,8.75
				c-8.15,9.16-8.31,22.92-0.39,32.27c5.24,4.34,11.26,7.65,17.74,9.74H143.38z M160.21,176.02v58.03
				c7.88-1.21,15.14-4.99,20.67-10.73c4.75-5.11,7.36-11.84,7.29-18.82c0.4-6.7-2.2-13.23-7.09-17.82
				C174.93,181.73,167.83,178.11,160.21,176.02z"/>
		</g>
	</g>
	<text id="dollar-sign-svg-text" x="50%" y="50%" font-size="3rem">Stuff</text>
</g>
</svg>
