<?xml version="1.0" encoding="UTF-8"?>
<svg width="276px" viewBox="0 0 276 276" xmlns="http://www.w3.org/2000/svg" xmlns:xlink="http://www.w3.org/1999/xlink" version="1.1">
 <!-- Generated by Pixelmator Pro 1.7.1 -->
 <g id="_x31_">
  <path id="Path" class="recolor-1" d="M195.63 166.29 L194.3 166.29 C192.09 166.29 190.3 168.08 190.3 170.29 190.3 172.5 192.09 174.29 194.3 174.29 L195.63 174.29 C197.84 174.29 199.63 172.5 199.63 170.29 199.63 168.08 197.84 166.29 195.63 166.29 Z" />
  <path id="Path-1" class="recolor-1" d="M217.11 72.1 L203.67 72.1 C191.07 46.18 165.24 28.93 138.62 28.93 117.75 28.93 97.91 37.96 84.19 53.7 82.74 55.37 82.91 57.89 84.58 59.34 86.25 60.79 88.77 60.62 90.22 58.95 102.42 44.95 120.07 36.92 138.62 36.92 162.94 36.92 186.59 53.31 197.47 77.72 198.13 79.21 199.59 80.09 201.13 80.09 201.21 80.09 201.3 80.07 201.38 80.06 201.46 80.07 201.54 80.09 201.63 80.09 L217.12 80.09 C240.88 80.09 260.21 99.42 260.21 123.18 260.21 146.94 240.88 166.27 217.12 166.27 L207.55 166.27 C205.34 166.27 203.55 168.06 203.55 170.27 203.55 172.48 205.34 174.27 207.55 174.27 L217.12 174.27 C245.29 174.27 268.21 151.35 268.21 123.18 268.21 95.02 245.29 72.1 217.11 72.1 Z" />
  <path id="Path-2" class="recolor-1" d="M191.02 96.2 C191.15 96.22 191.28 96.24 191.41 96.24 L205.3 96.24 C220.22 96.24 234.09 104.97 240.64 118.48 241.16 119.55 242.23 120.17 243.34 120.17 243.78 120.17 244.22 120.07 244.65 119.87 246.14 119.15 246.76 117.35 246.04 115.86 238.49 100.29 222.5 90.23 205.3 90.23 L192.53 90.23 C185.2 74.94 172.61 62.61 157.7 56.25 156.18 55.6 154.41 56.31 153.76 57.83 153.11 59.35 153.82 61.12 155.34 61.77 169.45 67.79 181.31 79.71 187.89 94.46 188.39 95.58 189.48 96.24 190.63 96.24 190.76 96.24 190.89 96.21 191.02 96.2 Z" />
  <path id="Path-3" class="recolor-1" d="M243.02 124.72 C243.88 127.72 244.38 130.83 244.5 133.96 244.56 135.58 245.89 136.84 247.5 136.84 L247.62 136.84 C249.28 136.78 250.57 135.38 250.5 133.73 250.36 130.12 249.79 126.53 248.79 123.06 248.33 121.47 246.67 120.55 245.08 121 243.48 121.46 242.56 123.12 243.02 124.72 Z" />
  <path id="Path-4" class="recolor-1" d="M182.88 166.29 L160.13 166.29 160.13 147.86 C160.13 145.65 158.34 143.86 156.13 143.86 L121.13 143.86 C118.92 143.86 117.13 145.65 117.13 147.86 L117.13 166.29 60.14 166.29 C36.38 166.29 17.05 146.96 17.05 123.2 17.05 99.44 36.38 80.11 60.14 80.11 L74.96 80.11 C76.44 80.11 77.71 79.3 78.41 78.11 78.72 77.77 78.98 77.38 79.16 76.93 80.49 73.67 82.1 70.5 83.95 67.5 85.11 65.62 84.52 63.16 82.64 62 80.76 60.84 78.3 61.43 77.14 63.31 75.4 66.13 73.86 69.09 72.53 72.12 L60.14 72.12 C31.97 72.12 9.05 95.04 9.05 123.21 9.05 151.38 31.97 174.3 60.14 174.3 L117.13 174.3 117.13 198.62 101.63 198.62 C100.07 198.62 98.66 199.52 98 200.94 97.34 202.35 97.57 204.02 98.57 205.21 L120.58 231.24 C121.37 232.18 122.5 232.66 123.64 232.66 124.55 232.66 125.47 232.35 126.22 231.71 127.91 230.28 128.12 227.76 126.69 226.07 L110.25 206.63 121.13 206.63 C123.34 206.63 125.13 204.84 125.13 202.63 L125.13 151.88 152.13 151.88 152.13 202.63 C152.13 204.84 153.92 206.63 156.13 206.63 L167.01 206.63 138.63 240.19 135.5 236.49 C134.07 234.8 131.55 234.59 129.86 236.02 128.17 237.45 127.96 239.97 129.39 241.66 L135.57 248.97 C136.33 249.87 137.45 250.39 138.62 250.39 139.8 250.39 140.91 249.87 141.67 248.97 L178.67 205.22 C179.67 204.03 179.9 202.37 179.24 200.95 178.58 199.54 177.17 198.63 175.61 198.63 L160.11 198.63 160.11 174.31 182.86 174.31 C185.07 174.31 186.86 172.52 186.86 170.31 186.86 168.1 185.09 166.29 182.88 166.29 Z" />
 </g>
</svg>
