<svg xmlns="http://www.w3.org/2000/svg" width="35.115" height="16.115" viewBox="0 0 35.115 16.115">
  <g id="Group_7960" data-name="Group 7960" transform="translate(-17425.23 9425.628)">
    <g id="Group_7087" data-name="Group 7087" transform="translate(16849.133 -9762.013)">
      <path id="Path_10717" data-name="Path 10717" d="M601.24,356.364a.534.534,0,0,0-.533.534v5.026a.533.533,0,0,0,1.067,0V356.9A.534.534,0,0,0,601.24,356.364Z" transform="translate(-11.095 -9.957)" fill="#fff"/>
      <path id="Path_10718" data-name="Path 10718" d="M613.99,356.394a.533.533,0,0,0-.533.533v5.01a.533.533,0,0,0,1.067,0v-5.01A.533.533,0,0,0,613.99,356.394Z" transform="translate(-16.843 -9.971)" fill="#fff"/>
      <path id="Path_10719" data-name="Path 10719" d="M605.35,343.008a3.313,3.313,0,1,0-3.226-3.312A3.274,3.274,0,0,0,605.35,343.008Zm0-5.556a2.247,2.247,0,1,1-2.16,2.245A2.206,2.206,0,0,1,605.35,337.452Z" transform="translate(-11.697)" fill="#fff"/>
      <path id="Path_10720" data-name="Path 10720" d="M580.58,359.084a.533.533,0,0,0-.533.533v1.962a.533.533,0,0,0,1.067,0v-1.962A.533.533,0,0,0,580.58,359.084Z" transform="translate(-1.81 -11.203)" fill="#fff"/>
      <path id="Path_10721" data-name="Path 10721" d="M593.321,359.114a.534.534,0,0,0-.534.534v2.731a.533.533,0,0,0,1.067,0v-2.731A.534.534,0,0,0,593.321,359.114Z" transform="translate(-7.524 -11.217)" fill="#fff"/>
      <path id="Path_10722" data-name="Path 10722" d="M584.684,345.728a3.313,3.313,0,1,0-3.227-3.312A3.274,3.274,0,0,0,584.684,345.728Zm0-5.557a2.247,2.247,0,1,1-2.16,2.245A2.207,2.207,0,0,1,584.684,340.171Z" transform="translate(-2.456 -1.246)" fill="#fff"/>
      <path id="Path_10723" data-name="Path 10723" d="M606.834,350.7a.544.544,0,0,0-.449.237L605,352.982l-1.39-2.048a.544.544,0,0,0-.449-.237,4.34,4.34,0,0,0-3.464,1.742,4.388,4.388,0,0,0-4.2-3.216.544.544,0,0,0-.449.236l-1.389,2.048-1.39-2.048a.542.542,0,0,0-.449-.236,4.392,4.392,0,0,0-4.2,3.216,4.341,4.341,0,0,0-3.464-1.742.544.544,0,0,0-.449.237l-1.39,2.048-1.39-2.048a.543.543,0,0,0-.448-.237,4.412,4.412,0,0,0-4.372,4.44v1.576a.54.54,0,0,0,1.081,0v-1.576a3.346,3.346,0,0,1,3.011-3.361l1.667,2.456v0l0,0a.537.537,0,0,0,.056.055.521.521,0,0,0,.092.092h0a.551.551,0,0,0,.169.069.544.544,0,0,0,.182.01c.016,0,.034,0,.05,0a.552.552,0,0,0,.2-.079h0a6.5,6.5,0,0,1,.148-.146l0,0v0l1.667-2.456a3.346,3.346,0,0,1,3.011,3.361v2.855a.54.54,0,0,0,1.081,0v-4.329a3.348,3.348,0,0,1,3.016-3.361l1.667,2.456v0l0,0a.468.468,0,0,0,.055.054.512.512,0,0,0,.093.092l0,0a.544.544,0,0,0,.178.072.529.529,0,0,0,.173.007c.017,0,.034,0,.051,0a.552.552,0,0,0,.2-.079h0a.511.511,0,0,0,.079-.078.478.478,0,0,0,.069-.068l0,0v0l1.667-2.456a3.346,3.346,0,0,1,3.011,3.361v4.329a.54.54,0,0,0,1.081,0v-2.855a3.346,3.346,0,0,1,3.011-3.361l1.667,2.456v0l0,0a.547.547,0,0,0,.059.058.526.526,0,0,0,.089.088h0a.486.486,0,0,0,.351.079c.016,0,.033,0,.05,0a.551.551,0,0,0,.2-.079h0a.508.508,0,0,0,.086-.085.554.554,0,0,0,.063-.061l0,0v0l1.667-2.455a3.348,3.348,0,0,1,3.016,3.361v1.576a.54.54,0,0,0,1.08,0v-1.576A4.414,4.414,0,0,0,606.834,350.7Z" transform="translate(0 -6.686)" fill="#fff"/>
      <path id="Path_10724" data-name="Path 10724" d="M621.91,359.084a.533.533,0,0,0-.533.533v2.748a.533.533,0,0,0,1.067,0v-2.748A.533.533,0,0,0,621.91,359.084Z" transform="translate(-20.414 -11.203)" fill="#fff"/>
      <path id="Path_10725" data-name="Path 10725" d="M634.651,359.114a.534.534,0,0,0-.534.534v1.95a.533.533,0,1,0,1.067,0v-1.95A.533.533,0,0,0,634.651,359.114Z" transform="translate(-26.128 -11.217)" fill="#fff"/>
      <path id="Path_10726" data-name="Path 10726" d="M626.017,345.728a3.313,3.313,0,1,0-3.226-3.312A3.273,3.273,0,0,0,626.017,345.728Zm0-5.557a2.247,2.247,0,1,1-2.16,2.245A2.207,2.207,0,0,1,626.017,340.171Z" transform="translate(-20.939 -1.246)" fill="#fff"/>
    </g>
  </g>
</svg>
