<svg xmlns="http://www.w3.org/2000/svg" width="28.278" height="28.69" viewBox="0 0 28.278 28.69">
  <g id="Group_7963" data-name="Group 7963" transform="translate(-17620.459 9431.63)">
    <g id="Group_7126" data-name="Group 7126" transform="translate(17054.002 -9662.142)">
      <g id="Group_7111" data-name="Group 7111" transform="translate(566.457 231.127)">
        <path id="Path_10740" data-name="Path 10740" d="M569.75,238.429a3.293,3.293,0,1,1,2.563-1.226A3.3,3.3,0,0,1,569.75,238.429Zm0-5.662a2.369,2.369,0,1,0,1.844,3.856,2.341,2.341,0,0,0,.525-1.487A2.371,2.371,0,0,0,569.75,232.768Z" transform="translate(-566.457 -231.843)" fill="#fff"/>
      </g>
      <g id="Group_7112" data-name="Group 7112" transform="translate(571.492 235.737)">
        <path id="Path_10741" data-name="Path 10741" d="M582.956,246.895a.459.459,0,0,1-.29-.1l-5.145-4.156a.462.462,0,1,1,.58-.72l5.145,4.156a.462.462,0,0,1-.29.822Z" transform="translate(-577.349 -241.814)" fill="#fff"/>
      </g>
      <g id="Group_7113" data-name="Group 7113" transform="translate(587.727 232.213)">
        <path id="Path_10742" data-name="Path 10742" d="M614.677,238.606a2.207,2.207,0,1,1,2.207-2.207A2.209,2.209,0,0,1,614.677,238.606Zm0-3.49a1.283,1.283,0,1,0,1.283,1.283A1.284,1.284,0,0,0,614.677,235.117Z" transform="translate(-612.471 -234.192)" fill="#fff"/>
      </g>
      <g id="Group_7114" data-name="Group 7114" transform="translate(583.224 235.136)">
        <path id="Path_10743" data-name="Path 10743" d="M603.191,245.987a.462.462,0,0,1-.312-.8l4.96-4.549a.462.462,0,0,1,.625.682l-4.961,4.549A.459.459,0,0,1,603.191,245.987Z" transform="translate(-602.729 -240.515)" fill="#fff"/>
      </g>
      <g id="Group_7115" data-name="Group 7115" transform="translate(575.674 238.276)">
        <path id="Path_10744" data-name="Path 10744" d="M591.2,256.925a4.809,4.809,0,1,1,0-9.617,4.843,4.843,0,0,1,.863.077h0a4.809,4.809,0,0,1-.863,9.54Zm0-8.693a3.885,3.885,0,0,0-1.413,7.5,3.921,3.921,0,0,0,2.688.05,3.885,3.885,0,0,0-.576-7.492h0A4,4,0,0,0,591.2,248.233Z" transform="translate(-586.395 -247.308)" fill="#fff"/>
      </g>
      <g id="Group_7116" data-name="Group 7116" transform="translate(589.465 246.554)">
        <path id="Path_10745" data-name="Path 10745" d="M618.864,270.486a2.635,2.635,0,1,1,2.635-2.635A2.638,2.638,0,0,1,618.864,270.486Zm0-4.346a1.709,1.709,0,0,0-1.516.916,1.691,1.691,0,0,0-.2.8,1.711,1.711,0,1,0,1.711-1.711Z" transform="translate(-616.229 -265.215)" fill="#fff"/>
      </g>
      <g id="Group_7117" data-name="Group 7117" transform="translate(583.871 244.644)">
        <path id="Path_10746" data-name="Path 10746" d="M610.434,265.083a.459.459,0,0,1-.215-.053l-5.843-3.074a.462.462,0,1,1,.431-.818l5.843,3.075a.462.462,0,0,1-.215.871Z" transform="translate(-604.128 -261.084)" fill="#fff"/>
      </g>
      <g id="Group_7118" data-name="Group 7118" transform="translate(573.128 255.717)">
        <path id="Path_10747" data-name="Path 10747" d="M582.63,288.523a1.742,1.742,0,1,1,.633-3.366h0a1.742,1.742,0,0,1-.634,3.366Zm0-2.56a.817.817,0,1,0,.3.055A.819.819,0,0,0,582.63,285.963Z" transform="translate(-580.888 -285.038)" fill="#fff"/>
      </g>
      <g id="Group_7119" data-name="Group 7119" transform="translate(574.871 246.674)">
        <path id="Path_10748" data-name="Path 10748" d="M585.121,275.529a.463.463,0,0,1-.43-.631l3.568-9.13a.463.463,0,0,1,.862.337l-3.569,9.13A.463.463,0,0,1,585.121,275.529Z" transform="translate(-584.659 -265.475)" fill="#fff"/>
      </g>
      <g id="Group_7120" data-name="Group 7120" transform="translate(567.712 245.084)">
        <path id="Path_10749" data-name="Path 10749" d="M572.1,267.883a2.924,2.924,0,1,1,2.616-4.231,2.889,2.889,0,0,1,.307,1.307A2.927,2.927,0,0,1,572.1,267.883Zm0-4.923a2,2,0,1,0,2,2,1.971,1.971,0,0,0-.21-.893h0A1.99,1.99,0,0,0,572.1,262.96Z" transform="translate(-569.173 -262.035)" fill="#fff"/>
      </g>
      <g id="Group_7121" data-name="Group 7121" transform="translate(572.375 244.568)">
        <path id="Path_10750" data-name="Path 10750" d="M579.721,263.724a.462.462,0,0,1-.207-.876l3.72-1.861a.462.462,0,0,1,.7.392v0a.462.462,0,0,1-.256.413l-3.754,1.877A.463.463,0,0,1,579.721,263.724Z" transform="translate(-579.258 -260.92)" fill="#fff"/>
      </g>
      <g id="Group_7122" data-name="Group 7122" transform="translate(580.709 230.512)">
        <path id="Path_10751" data-name="Path 10751" d="M599.03,234a1.742,1.742,0,1,1,1.742-1.742A1.737,1.737,0,0,1,599.03,234Zm0-2.56a.818.818,0,1,0,.818.818A.819.819,0,0,0,599.03,231.436Z" transform="translate(-597.288 -230.512)" fill="#fff"/>
      </g>
      <g id="Group_7123" data-name="Group 7123" transform="translate(580.797 233.052)">
        <path id="Path_10752" data-name="Path 10752" d="M597.941,242.223a.462.462,0,0,1-.455-.545l.961-5.293a.463.463,0,0,1,.91.166l-.962,5.293A.462.462,0,0,1,597.941,242.223Z" transform="translate(-597.478 -236.006)" fill="#fff"/>
      </g>
      <g id="Group_7124" data-name="Group 7124" transform="translate(582.08 250.789)">
        <path id="Path_10753" data-name="Path 10753" d="M601.905,277.679a1.651,1.651,0,1,1,1.651-1.651A1.653,1.653,0,0,1,601.905,277.679Zm0-2.377a.726.726,0,1,0,.726.726A.727.727,0,0,0,601.905,275.3Z" transform="translate(-600.254 -274.377)" fill="#fff"/>
      </g>
      <g id="Group_7125" data-name="Group 7125" transform="translate(581.447 246.73)">
        <path id="Path_10754" data-name="Path 10754" d="M600.777,270.643a.463.463,0,0,1-.437-.311l-1.414-4.085a.462.462,0,0,1,.419-.652h0a.463.463,0,0,1,.437.311l1.428,4.123a.463.463,0,0,1-.286.588A.47.47,0,0,1,600.777,270.643Z" transform="translate(-598.884 -265.595)" fill="#fff"/>
      </g>
    </g>
  </g>
</svg>
