<svg xmlns="http://www.w3.org/2000/svg" xmlns:xlink="http://www.w3.org/1999/xlink" width="312.268" height="51.156" viewBox="0 0 312.268 51.156">
  <defs>
    <linearGradient id="linear-gradient" x1="0.5" y1="1" x2="0.5" gradientUnits="objectBoundingBox">
      <stop offset="0" stop-color="#3e5a71"/>
      <stop offset="1" stop-color="#4496e6"/>
    </linearGradient>
  </defs>
  <path id="Path_11679" data-name="Path 11679" d="M208.163,192.808c3.764-1.158,10.359-2.4,14.6-.97,6.371,2.153,6.838,6.884,9.724,7.072,7.661.5,11.93-32.323,24.31-33.526,10.656-1.035,16.861,22.369,32.645,22.787,14.108.375,20.313-18.032,32.3-16.763,13.534,1.433,15.27,25.932,30.214,26.977,7.229.507,10.3-4.983,19.449-3.928,9.313,1.072,10.427,7.252,17.017,7.334,11.375.142,14.846-18.191,27.088-18.858,9.749-.532,13.253,10.786,23.615,10.476,11.777-.35,14.8-15.193,25.7-16.238,10.518-1.01,12.189,18.008,29.172,22.525,8.026,2.135,25.8,15.83,25.432,15.812H208.163Z" transform="translate(-207.663 -164.852)" stroke="#fff" stroke-width="1" fill="url(#linear-gradient)"/>
</svg>
