<svg id="Group_7802" data-name="Group 7802" xmlns="http://www.w3.org/2000/svg" width="64.974" height="66.594" viewBox="0 0 64.974 66.594">
  <g id="Group_7697" data-name="Group 7697" transform="translate(0 16.577)">
    <g id="Group_7696" data-name="Group 7696" transform="translate(0 0)">
      <path id="Path_11585" data-name="Path 11585" d="M1532.936,1968.265v-9.884s-.363-1.526,1.672-2.689,28.779-16.57,28.779-16.57,1.308-.291,1.308,1.381v9.266s-.327,1.89-1.054,2.4-29.178,16.86-29.178,16.86S1532.973,1969.718,1532.936,1968.265Z" transform="translate(-1500.326 -1919.822)" fill="#d4d9de" fill-rule="evenodd"/>
      <path id="Path_11586" data-name="Path 11586" d="M750.261,1459.219l-28.488,16.441c-.131.09-.252.182-.363.275a3.909,3.909,0,0,0-.585.593l-27.208-15.714-3.787-2.189a2.6,2.6,0,0,1,.542-.468l28.636-16.545c.346-.177.445-.167.543-.123Z" transform="translate(-687.953 -1440.307)" fill="#0e97ed" fill-rule="evenodd"/>
      <path id="Path_11587" data-name="Path 11587" d="M2281.191,2102.136l2.765-1.6v-3.194l-2.765,1.6Z" transform="translate(-2221.351 -2072.297)" fill="#0e97ed" fill-rule="evenodd"/>
      <path id="Path_11588" data-name="Path 11588" d="M2269.875,2081.541a.59.59,0,0,0-.592,0l-2.765,1.595a.619.619,0,0,0-.248.5v3.194a.619.619,0,0,0,.248.5.59.59,0,0,0,.592,0l2.765-1.6a.547.547,0,0,0,.3-.5v-3.194A.547.547,0,0,0,2269.875,2081.541Zm-.84,3.362-1.629.929v-1.856l1.629-.928Z" transform="translate(-2206.974 -2056.995)" fill="#365b73" fill-rule="evenodd"/>
      <path id="Path_11589" data-name="Path 11589" d="M700.624,1958.258a3.415,3.415,0,0,0-.287,1.3v9.534l-30.611-17.7c-.148-.094-.2-.168-.247-.523V1941.1a3.336,3.336,0,0,1,.148-.736Z" transform="translate(-668.344 -1921.033)" fill="#0e97ed" fill-rule="evenodd"/>
      <path id="Path_11590" data-name="Path 11590" d="M702.524,1428.4l-32.092-18.514a1.7,1.7,0,0,0-1.629.129L640.117,1426.6a3.287,3.287,0,0,0-1.234,1.249,1.2,1.2,0,0,0-.1.119,3.505,3.505,0,0,0-.494,1.807v9.825a1.594,1.594,0,0,0,.741,1.481l32,18.464.046.027a1.364,1.364,0,0,0,.691.182,1.78,1.78,0,0,0,.939-.291l28.735-16.564a3.979,3.979,0,0,0,1.826-3.184V1429.9A1.712,1.712,0,0,0,702.524,1428.4Zm-32.24,19.857v9.534l-30.611-17.7c-.148-.094-.2-.168-.247-.523V1429.8a3.326,3.326,0,0,1,.148-.736l31,17.9A3.415,3.415,0,0,0,670.283,1448.26Zm.879-2.306-27.208-15.714-3.787-2.189a2.6,2.6,0,0,1,.542-.468l28.636-16.545c.346-.177.445-.168.543-.123l30.71,17.729-28.488,16.441c-.131.09-.252.182-.364.275A3.919,3.919,0,0,0,671.162,1445.954Zm30.917-6.244a2.942,2.942,0,0,1-1.234,2.182l-28.686,16.564a.722.722,0,0,1-.5.12.487.487,0,0,1-.185-.393c0-.009,0-.019,0-.028s0-.011,0-.017,0-.02,0-.031,0-.031,0-.047v-9.775a3.651,3.651,0,0,1,.111-.648,3.13,3.13,0,0,1,.257-.57l.027-.046a2.24,2.24,0,0,1,.3-.463l0,0a2.061,2.061,0,0,1,.268-.276l.005,0a2.066,2.066,0,0,1,.265-.2l28.685-16.554a.986.986,0,0,1,.423-.142h.022a.116.116,0,0,1,.064.014h0l.034.015c.1.044.148.2.148.494Z" transform="translate(-638.29 -1409.733)" fill="#365b73" fill-rule="evenodd"/>
      <path id="Path_11591" data-name="Path 11591" d="M2155.127,2174.933l2.764-1.595v-3.2l-2.764,1.6Z" transform="translate(-2099.879 -2142.443)" fill="#0e97ed" fill-rule="evenodd"/>
      <path id="Path_11592" data-name="Path 11592" d="M2142.523,2154.381a.51.51,0,0,0-.543,0l-2.814,1.594a.663.663,0,0,0-.3.5v3.194a.654.654,0,0,0,.3.5.606.606,0,0,0,.3.08.613.613,0,0,0,.3-.08l2.764-1.594a.554.554,0,0,0,.3-.5v-3.2A.545.545,0,0,0,2142.523,2154.381Zm-.839,3.362-1.629.929v-1.857l1.629-.927Z" transform="translate(-2084.214 -2127.183)" fill="#365b73" fill-rule="evenodd"/>
      <path id="Path_11593" data-name="Path 11593" d="M1612.876,2269.014l-17.28,9.969a.6.6,0,0,1-.3.079.558.558,0,0,1-.495-.292.614.614,0,0,1,.2-.79l17.28-9.973a.581.581,0,0,1,.789.217A.613.613,0,0,1,1612.876,2269.014Z" transform="translate(-1559.899 -2236.672)" fill="#365b73" fill-rule="evenodd"/>
    </g>
  </g>
  <g id="Group_7698" data-name="Group 7698" transform="translate(0 0)">
    <g id="Group_7696-2" data-name="Group 7696" transform="translate(0 0)">
      <path id="Path_11585-2" data-name="Path 11585" d="M1532.936,1968.265v-9.884s-.363-1.526,1.672-2.689,28.779-16.57,28.779-16.57,1.308-.291,1.308,1.381v9.266s-.327,1.89-1.054,2.4-29.178,16.86-29.178,16.86S1532.973,1969.718,1532.936,1968.265Z" transform="translate(-1500.326 -1919.822)" fill="#d4d9de" fill-rule="evenodd"/>
      <path id="Path_11586-2" data-name="Path 11586" d="M750.261,1459.219l-28.488,16.441c-.131.09-.252.182-.363.275a3.909,3.909,0,0,0-.585.593l-27.208-15.714-3.787-2.189a2.6,2.6,0,0,1,.542-.468l28.636-16.545c.346-.177.445-.167.543-.123Z" transform="translate(-687.953 -1440.307)" fill="#0e97ed" fill-rule="evenodd"/>
      <path id="Path_11587-2" data-name="Path 11587" d="M2281.191,2102.136l2.765-1.6v-3.194l-2.765,1.6Z" transform="translate(-2221.351 -2072.297)" fill="#0e97ed" fill-rule="evenodd"/>
      <path id="Path_11588-2" data-name="Path 11588" d="M2269.875,2081.541a.59.59,0,0,0-.592,0l-2.765,1.595a.619.619,0,0,0-.248.5v3.194a.619.619,0,0,0,.248.5.59.59,0,0,0,.592,0l2.765-1.6a.547.547,0,0,0,.3-.5v-3.194A.547.547,0,0,0,2269.875,2081.541Zm-.84,3.362-1.629.929v-1.856l1.629-.928Z" transform="translate(-2206.974 -2056.995)" fill="#365b73" fill-rule="evenodd"/>
      <path id="Path_11589-2" data-name="Path 11589" d="M700.624,1958.258a3.415,3.415,0,0,0-.287,1.3v9.534l-30.611-17.7c-.148-.094-.2-.168-.247-.523V1941.1a3.336,3.336,0,0,1,.148-.736Z" transform="translate(-668.344 -1921.033)" fill="#0e97ed" fill-rule="evenodd"/>
      <path id="Path_11590-2" data-name="Path 11590" d="M702.524,1428.4l-32.092-18.514a1.7,1.7,0,0,0-1.629.129L640.117,1426.6a3.287,3.287,0,0,0-1.234,1.249,1.2,1.2,0,0,0-.1.119,3.505,3.505,0,0,0-.494,1.807v9.825a1.594,1.594,0,0,0,.741,1.481l32,18.464.046.027a1.364,1.364,0,0,0,.691.182,1.78,1.78,0,0,0,.939-.291l28.735-16.564a3.979,3.979,0,0,0,1.826-3.184V1429.9A1.712,1.712,0,0,0,702.524,1428.4Zm-32.24,19.857v9.534l-30.611-17.7c-.148-.094-.2-.168-.247-.523V1429.8a3.326,3.326,0,0,1,.148-.736l31,17.9A3.415,3.415,0,0,0,670.283,1448.26Zm.879-2.306-27.208-15.714-3.787-2.189a2.6,2.6,0,0,1,.542-.468l28.636-16.545c.346-.177.445-.168.543-.123l30.71,17.729-28.488,16.441c-.131.09-.252.182-.364.275A3.919,3.919,0,0,0,671.162,1445.954Zm30.917-6.244a2.942,2.942,0,0,1-1.234,2.182l-28.686,16.564a.722.722,0,0,1-.5.12.487.487,0,0,1-.185-.393c0-.009,0-.019,0-.028s0-.011,0-.017,0-.02,0-.031,0-.031,0-.047v-9.775a3.651,3.651,0,0,1,.111-.648,3.13,3.13,0,0,1,.257-.57l.027-.046a2.24,2.24,0,0,1,.3-.463l0,0a2.061,2.061,0,0,1,.268-.276l.005,0a2.066,2.066,0,0,1,.265-.2l28.685-16.554a.986.986,0,0,1,.423-.142h.022a.116.116,0,0,1,.064.014h0l.034.015c.1.044.148.2.148.494Z" transform="translate(-638.29 -1409.733)" fill="#365b73" fill-rule="evenodd"/>
      <path id="Path_11591-2" data-name="Path 11591" d="M2155.127,2174.933l2.764-1.595v-3.2l-2.764,1.6Z" transform="translate(-2099.879 -2142.443)" fill="#0e97ed" fill-rule="evenodd"/>
      <path id="Path_11592-2" data-name="Path 11592" d="M2142.523,2154.381a.51.51,0,0,0-.543,0l-2.814,1.594a.663.663,0,0,0-.3.5v3.194a.654.654,0,0,0,.3.5.606.606,0,0,0,.3.08.613.613,0,0,0,.3-.08l2.764-1.594a.554.554,0,0,0,.3-.5v-3.2A.545.545,0,0,0,2142.523,2154.381Zm-.839,3.362-1.629.929v-1.857l1.629-.927Z" transform="translate(-2084.214 -2127.183)" fill="#365b73" fill-rule="evenodd"/>
      <path id="Path_11593-2" data-name="Path 11593" d="M1612.876,2269.014l-17.28,9.969a.6.6,0,0,1-.3.079.558.558,0,0,1-.495-.292.614.614,0,0,1,.2-.79l17.28-9.973a.581.581,0,0,1,.789.217A.613.613,0,0,1,1612.876,2269.014Z" transform="translate(-1559.899 -2236.672)" fill="#365b73" fill-rule="evenodd"/>
    </g>
  </g>
</svg>
