<svg id="Layer_1" data-name="Layer 1" xmlns="http://www.w3.org/2000/svg" viewBox="0 0 72 72">
  <defs>
    <style>
      .cls-1 {
        fill: none;
      }
    </style>
  </defs>
  <rect class="cls-1" width="72" height="72"/>
  <g class="recolor-1">
    <path d="M28.85,53.61H22.2a9.81,9.81,0,0,1-9.81-9.81V28.17a9.81,9.81,0,0,1,9.81-9.81h6.67a.94.94,0,0,1,.94.94v3.12a.94.94,0,0,1-.94.94H22.2a4.81,4.81,0,0,0-4.81,4.81V43.8a4.81,4.81,0,0,0,4.81,4.81h6.65a1,1,0,0,1,.94,1v3.11A.94.94,0,0,1,28.85,53.61Z"/>
    <path d="M59.17,37,42.92,53.26a2.16,2.16,0,0,1-3.69-1.52l0-9.28H26.08a2,2,0,0,1-2-2v-9a2,2,0,0,1,2-2H39.13l0-9a2.33,2.33,0,0,1,4-1.66L59.17,34.88A1.5,1.5,0,0,1,59.17,37Z"/>
  </g>
</svg>
