<svg id="piggybank" xmlns="http://www.w3.org/2000/svg" viewBox="0 0 1156 1226.22">
  <defs>
    <style>
      .cls-1 {
        fill: #fff;
      }
    </style>
  </defs>
  <path id="pigoutline" class="cls-1" d="M1627.24,1249.07c-13.4-3.45-42.18-12.09-65.82-27.58,14.89-9.67,25.54-21.23,31.82-34.62,8.6-18.31,6.22-37.42-6.52-52.42-14.84-17.49-41.14-25.79-62.55-19.74-17.59,5-29.34,18.63-32.24,37.46-3.2,20.76.5,40.24,10.78,57.79-1.54.43-3.06.83-4.55,1.22a299.79,299.79,0,0,1-34.92,6.7C1442.5,1051,1247.72,920.19,1010.48,920.19c-65.68,0-128.1,10-184.48,28.07-31.24-51.06-99.42-73.89-135-82.63a13.9,13.9,0,0,0-16.75,17.11l32.5,121.2c-60.85,39.36-106.87,90.36-131.27,148.14l-74.26,15.2A21.55,21.55,0,0,0,484,1188.4v118a21.56,21.56,0,0,0,17.24,21.12l74.25,15.19c31.27,74,98,136.9,185.9,178.44v65.26a26.69,26.69,0,0,0,26.69,26.69H897.75a26.69,26.69,0,0,0,26.68-26.69v-17.66a630.6,630.6,0,0,0,86.05,5.85q25.85,0,51-2v13.84a26.69,26.69,0,0,0,26.69,26.69h109.66a26.69,26.69,0,0,0,26.69-26.69v-50.26c141.46-54.43,238.25-161.13,240.55-284.25a338.77,338.77,0,0,0,41-7.69q10.93-2.81,20.64-6.2,4.89,4.18,10.44,8.13c28.4,20.2,63.34,31.11,81.63,35.82a17.24,17.24,0,0,0,4.24.54,17,17,0,0,0,4.22-33.44Zm-876-62.81a39.63,39.63,0,1,1,39.63-39.63A39.62,39.62,0,0,1,751.2,1186.26Zm422.39-152.49a17,17,0,0,1-22.29,8.94c-38.35-16.39-83.33-25.06-130.06-25.06s-91.71,8.67-130.06,25.06a17,17,0,1,1-13.35-31.24c42.53-18.18,92.13-27.79,143.41-27.79s100.87,9.61,143.41,27.79A17,17,0,0,1,1173.59,1033.77Zm361.72,163.69c-8-11.26-12.21-24.56-9.81-40.12,1.09-7.1,4.61-9,7.91-9.94a20,20,0,0,1,5.44-.7c7.86,0,17,3.82,22,9.72,4.09,4.82,4.61,9.76,1.68,16C1557.57,1182.93,1547.33,1191.13,1535.31,1197.46Z" transform="translate(-484 -386.89)"/>
  <path id="coin3" class="cls-1" d="M1010.05,649.59a114.36,114.36,0,1,0,114.36,114.35A114.35,114.35,0,0,0,1010.05,649.59Zm44.26,97.31c-1.7,1.7-5.29,1.54-7.72,1.54H1038c-4.54,0-7.85.94-8.62-6.11-1-8.71-8.27-14.83-18.29-14.83a23.83,23.83,0,0,0-11.09,2.66,8,8,0,0,0-4.56,6.45,7.5,7.5,0,0,0,2.89,6.53l36.16,19.14c12.92,6.84,20.06,20.47,17.78,33.92a32.61,32.61,0,0,1-16.85,23.07,49.31,49.31,0,0,1-14.76,5.24v6.65a2.6,2.6,0,0,1-2.6,2.61h-16a2.6,2.6,0,0,1-2.6-2.61v-7.08c-18.82-4.35-33.2-19-34.59-37-.18-2.33-.68-3.85.91-5.58s5.27-1.87,7.73-1.87h8.62c7,.22,8.17,1.61,8.61,5.94.87,8.41,9.79,15,20.31,15a23.83,23.83,0,0,0,11.42-2.83,7.76,7.76,0,0,0,4.18-5.56c.53-3.15-1.38-6.47-4.77-8.26L984,763.89l-.73-.53a32.11,32.11,0,0,1-13.68-28.64c.88-11,7.56-20.84,17.88-26.27a49.23,49.23,0,0,1,11.88-4.39v-7.34a2.61,2.61,0,0,1,2.6-2.6h16a2.61,2.61,0,0,1,2.6,2.6v6.88a44.26,44.26,0,0,1,22.21,11.09c7.39,6.95,11.08,16.4,12.52,26.36C1056,746.08,1054.58,746.63,1054.31,746.9Z" transform="translate(-484 -386.89)"/>
  <path id="coin2" class="cls-1" d="M937.25,477a114.35,114.35,0,1,0-87.49,136A114.35,114.35,0,0,0,937.25,477ZM862,550a49.53,49.53,0,0,1-13.31,8.26l1.41,6.49a2.61,2.61,0,0,1-2,3.1l-15.6,3.39a2.6,2.6,0,0,1-3.09-2l-1.51-6.92c-19.31-.26-36.48-11.55-41.64-28.78-.67-2.23-1.48-3.61-.29-5.65s4.76-2.94,7.15-3.46l8.43-1.83c6.91-1.28,8.33-.16,9.68,4,2.63,8,12.74,12.59,23,10.36a23.78,23.78,0,0,0,10.56-5.19,7.76,7.76,0,0,0,2.91-6.32c-.15-3.19-2.72-6-6.41-7.06L800,506.75l-.82-.36c-10.69-4.67-18-14-19.46-25.09s3-22,11.91-29.47A49.44,49.44,0,0,1,802.32,445l-1.56-7.17a2.6,2.6,0,0,1,2-3.09l15.6-3.39a2.61,2.61,0,0,1,3.1,2l1.46,6.72A44.28,44.28,0,0,1,847,446.21c8.7,5.23,14.31,13.67,17.84,23.1,1.77,4.76.54,5.59.33,5.91-1.3,2-4.83,2.63-7.21,3.15l-8.42,1.83c-4.44,1-7.48,2.57-9.73-4.15-2.78-8.31-11.22-12.73-21-10.61a23.84,23.84,0,0,0-10.27,4.95,8.06,8.06,0,0,0-3.09,7.28,7.48,7.48,0,0,0,4.22,5.76l39.39,11c14.07,3.94,24,15.74,24.57,29.37A32.64,32.64,0,0,1,862,550Z" transform="translate(-484 -386.89)"/>
  <path id="coin1" class="cls-1" d="M1282.28,462.08a114.35,114.35,0,1,0,76.06,142.71A114.36,114.36,0,0,0,1282.28,462.08Zm16.56,100.65c-.77,5-2.24,5.15-2.59,5.33-2.12,1.13-5.5-.06-7.83-.77l-8.24-2.51c-4.35-1.33-7.79-1.4-6.47-8.37,1.62-8.61-3.59-16.59-13.18-19.51a23.9,23.9,0,0,0-11.38-.69,8.06,8.06,0,0,0-6.24,4.84,7.47,7.47,0,0,0,.87,7.09l29,28.85c10.37,10.31,13.23,25.43,7.13,37.63a32.66,32.66,0,0,1-22.84,17.16,49.71,49.71,0,0,1-15.65.71l-1.94,6.36a2.6,2.6,0,0,1-3.25,1.73L1221,635.93a2.61,2.61,0,0,1-1.74-3.25l2.07-6.77c-16.74-9.65-26.21-27.88-22.32-45.44.51-2.28.47-3.88,2.51-5.07s5.58-.25,7.93.46l8.25,2.52c6.65,2.25,7.34,3.92,6.51,8.19-1.63,8.3,5,17.2,15,20.27a23.87,23.87,0,0,0,11.74.62,7.81,7.81,0,0,0,5.63-4.1c1.42-2.86.56-6.59-2.16-9.29L1224,563.82l-.55-.72a32.12,32.12,0,0,1-4.74-31.39c4-10.28,13.31-17.72,24.76-19.92a50,50,0,0,1,12.65-.73l2.13-7a2.61,2.61,0,0,1,3.25-1.73L1276.8,507a2.6,2.6,0,0,1,1.73,3.25l-2,6.57a44.27,44.27,0,0,1,18,17.09C1299.58,542.67,1300.37,552.78,1298.84,562.73Z" transform="translate(-484 -386.89)"/>
</svg>
