<?xml version="1.0" encoding="utf-8"?>
<!-- Generator: Adobe Illustrator 24.2.3, SVG Export Plug-In . SVG Version: 6.00 Build 0)  -->
<svg version="1.1" id="Layer_3" xmlns="http://www.w3.org/2000/svg" xmlns:xlink="http://www.w3.org/1999/xlink" x="0px" y="0px"
	 viewBox="0 0 619 720" xml:space="preserve">
<g>
	<path class="recolor-1" d="M308.5,451c-68.43,0-124.8-64.51-128.33-146.87c-0.12-2.76-0.17-5.5-0.17-8.13v-54.11
		c0-15.93,12.96-28.89,28.89-28.89h191.69c2.76,0,5,2.24,5,5s-2.24,5-5,5H208.89c-10.42,0-18.89,8.47-18.89,18.89V296
		c0,2.5,0.06,5.09,0.17,7.71C193.46,380.69,245.44,441,308.5,441c63.06,0,115.04-60.31,118.33-137.29c0.11-2.6,0.17-5.2,0.17-7.71
		v-54.11c0-2.76,2.24-5,5-5s5,2.24,5,5V296c0,2.65-0.06,5.38-0.17,8.13C433.3,386.49,376.93,451,308.5,451z"/>
</g>
<g>
	<path class="recolor-1" d="M185.17,303.92c-0.11-0.92-0.17-1.86-0.17-2.81V296C185,298.66,185.06,301.3,185.17,303.92z"/>
</g>
<g>
	<path class="recolor-1" d="M432,296v5.11c0,0.95-0.06,1.89-0.17,2.81C431.94,301.3,432,298.66,432,296z"/>
</g>
<g>
	<path class="recolor-1" d="M432,309c-2.76,0-5-2.24-5-5s2.24-5,5-5c7.28,0,18.2-21.71,23.5-37.79V168.5c0-19.44-10.49-35.82-31.17-48.68
		c-14.37-8.94-29.01-13.05-31.96-13.82H242c-18.98,0-20.94,25.26-21.01,26.33l-0.32,4.66L216,137c-40.26,0-51.61,36.52-53,41.64V262
		c0,9.25,15.48,25.88,25.24,34.19c2.1,1.79,2.35,4.95,0.56,7.05c-1.79,2.1-4.95,2.35-7.05,0.56C178.81,301.3,153,278.82,153,262
		v-84.59l0.14-0.57c0.12-0.51,3.1-12.65,12.24-24.84c8.06-10.75,22.49-23.44,46.17-24.87C213.69,114.37,221.87,96,242,96h151.58
		l0.57,0.13c0.72,0.17,17.86,4.31,35.23,15.05c23.63,14.62,36.12,34.43,36.12,57.31v94.28l-0.24,0.75
		C462.82,271.12,449.75,309,432,309z"/>
</g>
<g>
	<path class="recolor-1" d="M301.28,563.52c-30.45,0-54.95-10.7-72.94-31.91c-16-18.86-21.85-40.69-23.62-49.2
		c-0.47-2.26-0.66-3.6-0.68-3.74l-0.69-5.01l5.02-0.63c14.62-1.83,17.25-42.13,16.24-61.36c-0.15-2.76,1.97-5.11,4.73-5.26
		c2.76-0.14,5.11,1.97,5.26,4.73c0.35,6.52,2.52,60.44-19.84,70.4c1.88,8.45,7.36,27.3,21.2,43.61
		c18.11,21.34,43.88,30.72,76.6,27.87c36.44-3.17,63.73-16.65,81.11-40.08c10.2-13.75,13.84-27.12,14.95-32.31
		c-2.13-2.25-5.83-6.3-9.55-11.04C390.95,459.25,387,451.21,387,445c0-2.76,2.24-5,5-5s5,2.24,5,5c0,6.83,12.01,21.93,20.54,30.47
		l1.73,1.73l-0.31,2.43c-0.1,0.78-2.58,19.26-16.93,38.83c-13.16,17.94-39.21,40.23-88.6,44.52
		C309.28,563.34,305.23,563.52,301.28,563.52z"/>
</g>
<g>
	<path class="recolor-1" d="M529.93,625H94c-7.98,0-14.39-3.78-18.04-10.65c-2.56-4.82-2.92-9.51-2.95-10.03L73,604v-64
		c0.22-13.79,5.44-25.64,15.51-35.29c31.58-30.26,100.69-28.79,103.62-28.71c2.76,0.07,4.94,2.37,4.86,5.13
		c-0.07,2.76-2.35,4.95-5.13,4.87c-0.67-0.02-67.89-1.44-96.45,25.94c-8.18,7.84-12.24,17.04-12.42,28.14l0,63.73
		c0.18,2.12,1.52,11.19,11,11.19h434.01c4.11-1.8,11.49-6.29,11.49-10.5v-62.37c-0.08-1.16-1.32-14.76-16.34-28.62
		C508.55,500.05,477.77,484,414,484c-2.76,0-5-2.24-5-5s2.24-5,5-5c54.41,0,93.67,11.06,116.69,32.87
		c17.9,16.95,18.78,34.21,18.81,34.93l0,0.2v62.5c0,12.56-16.78,19.42-18.7,20.16L529.93,625z"/>
</g>
<text class="profile-svg-text" y="82%" x="60%" font-size="3rem"></text>
</svg>
