<svg id="_ÎÓÈ_7" data-name="—ÎÓÈ_7" xmlns="http://www.w3.org/2000/svg" xmlns:xlink="http://www.w3.org/1999/xlink" width="160" height="212" viewBox="0 10 84.359 120.186">
  <defs>
    <linearGradient id="linear-gradient" y1="0.5" x2="1" y2="0.5" gradientUnits="objectBoundingBox">
      <stop offset="0" stop-color="#d9fcff"/>
      <stop offset="1" stop-color="#d9fcff"/>
    </linearGradient>
  </defs>
  <g id="Group_6711" data-name="Group 6711">
    <rect id="Rectangle_1355" data-name="Rectangle 1355" width="84.285" height="106.06" fill="url(#linear-gradient)"/>
    <path id="Path_9993" data-name="Path 9993" d="M116.957,307.874H52.667c0-.042,0-.084-.005-.126H32.6v-15.6q.089-.122.185-.245l.074-.1a22.9,22.9,0,0,1,6.2-5.4c.22-.136.439-.267.657-.392.1-.059.207-.121.311-.178,6.469-3.7,11.39-3.81,18.934-7.879.124-.067.247-.133.37-.2q.73-.4,1.385-.822a17.423,17.423,0,0,0,3.642-3.037c.086-.1.17-.2.252-.294.168-.2.326-.4.477-.6s.3-.41.442-.62c.069-.1.133-.2.2-.306.077-.121.153-.244.227-.37.091-.156.18-.314.264-.472s.165-.319.245-.482c.062-.126.121-.254.178-.383.037-.084.077-.173.114-.259.057-.133.111-.267.163-.4s.1-.262.146-.393c.069-.2.136-.4.2-.605.044-.148.089-.3.131-.449.007-.032.017-.062.025-.094.034-.119.067-.24.094-.363l.059-.252c.084-.365.158-.738.22-1.116.025-.15.049-.3.069-.452.027-.193.052-.388.074-.583s.042-.393.059-.593c.054-.6.084-1.21.1-1.842q.007-.315.007-.637a8.782,8.782,0,0,1,4.968-7.845,13.452,13.452,0,0,1,1.805-.83c6.435-2.432,15.035-.64,14.4,4.941q-.1.841-.188,1.662l-.015.136c-.017.168-.037.336-.054.5-.027.252-.054.5-.079.751-.032.306-.062.612-.089.913-.017.19-.035.378-.052.565-.025.262-.044.521-.064.778-.01.148-.022.3-.032.442-.022.294-.039.585-.054.872,0,.05-.007.1-.01.148,0,.1-.007.19-.01.284-.042.958-.052,1.891-.02,2.8.012.366.032.726.062,1.084a12.87,12.87,0,0,0,3.489,8.437,13.48,13.48,0,0,0,2.681,2.077,19.243,19.243,0,0,0,2.6,1.289c4.405,1.8,7.588,3.279,9.859,4.936a11,11,0,0,1,4.343,5.874c1.18,3.783,3.449,9.78,4.605,13.2.3.9.531,1.622.639,2.079A2.093,2.093,0,0,1,116.957,307.874Z" transform="translate(-32.598 -201.687)" fill="#fda68a"/>
    <path id="Path_9994" data-name="Path 9994" d="M193.406,294.8a50.144,50.144,0,0,1,.415-9.267c-6.461.758-14.734.8-20.945,1.39-.017.225-.04.448-.04.682,0,4.694-.98,8.468-3.74,11.561C172.752,302.983,188.6,304.141,193.406,294.8Z" transform="translate(-137.338 -226.959)" fill="#d9886e"/>
    <path id="Path_9995" data-name="Path 9995" d="M116.957,387.61H52.667c0-.042,0-.084-.005-.126H32.6v-15.6q.089-.122.185-.245c.025-.032.049-.067.074-.1a22.9,22.9,0,0,1,6.2-5.4c.22-.136.439-.267.657-.392,6.664-3.867,11.857-3.523,19.348-8.1.089-.052.178-.109.267-.163.467-.289.931-.575,1.385-.822.1-.054.2-.109.3-.158-.269,4.3,11.378,11.1,18.753,10.776,11.092-.489,12.571-6.679,12.378-9.58a.4.4,0,0,0,0-.057c.025.054.941.607,2.163,1.3l.027.015a.529.529,0,0,0,.086.047,52.849,52.849,0,0,0,5.309,2.7,24.29,24.29,0,0,1,7.561,4.291,20.054,20.054,0,0,1,4.343,5.874l.4.746c2.232,4.2,2.8,7.316,4.208,12.457.195.714.4,1.464.639,2.264C116.907,387.438,116.932,387.524,116.957,387.61Z" transform="translate(-32.598 -281.424)" fill="#fad4b0"/>
    <path id="Path_9996" data-name="Path 9996" d="M52.662,391.239H32.6V375.654c.059-.087.123-.173.185-.257l.074-.1a23.988,23.988,0,0,1,6.835-6.089c7.193-4.415,12.37-5.133,19.269-7.756l.1-.04.012,0C54.922,367.4,52.2,377.471,52.662,391.239Z" transform="translate(-32.598 -285.179)" fill="#ed6b55"/>
    <path id="Path_9997" data-name="Path 9997" d="M306.632,395.515a46.364,46.364,0,0,0-8.358-27.7c-.1-.141-.2-.282-.309-.422-.232-.311-.286-.442-.215-.41l.027.015a.408.408,0,0,0,.094.049c.681.338,3.519,1.069,5.968,2.084a26.719,26.719,0,0,1,13.228,11.529,37.381,37.381,0,0,1,3.254,9.039v5.5a2.1,2.1,0,0,1,.074.442H306.623S306.625,395.6,306.632,395.515Z" transform="translate(-236.036 -289.455)" fill="#ed6b55"/>
    <path id="Path_9998" data-name="Path 9998" d="M150.606,155.182c-.726,4.93.251,7.774.584,12.418.588,8.208,2.564,13.663,4.437,16.34,3.315,4.74,9.424,6.809,12.834,6.489,7.54-.709,12.818-6.736,13.281-14.357.414-6.806-.745-7.818-.085-13.037,1.638-12.947-2.774-15.186-13.475-15.991C159.088,146.36,151.513,149.019,150.606,155.182Z" transform="translate(-122.948 -120.608)" fill="#fda68a"/>
    <path id="Path_9999" data-name="Path 9999" d="M155.858,123.076s3.2-7.527-3.466-11.717c-7.334-4.608-16.492-3.7-23.388,3.608-3.62,3.836-4.38,3.167-5.6,2.161-.731,2.054,1.5,3.174,1.5,3.174s-2.725.879-3.687-1.572c-1.052,2.725.98,6.7,3.572,8.135,5.869,3.258,18.245-3.847,21.671-5.106A9.249,9.249,0,0,1,155.858,123.076Z" transform="translate(-100.379 -91.139)" fill="#6b393a"/>
    <path id="Path_10000" data-name="Path 10000" d="M247.147,139.2s6.28,1.808,7.078,7.074c.617,4.071-.144,7.006.3,9.187.709,3.489,1.5,3.4,1.5,3.4s4.2,1.5,4.461-4.671.552-17.746-8.078-19.767C245.927,132.908,247.147,139.2,247.147,139.2Z" transform="translate(-197.159 -110.825)" fill="#6b393a"/>
    <path id="Path_10001" data-name="Path 10001" d="M142.85,172.043c.524-9-1.316-9.826.713-15.511,1.886-5.284.846-4.233-2.131-1.814s-2.046,13.6-.559,16.871S142.85,172.043,142.85,172.043Z" transform="translate(-114.609 -125.051)" fill="#6b393a"/>
    <path id="Path_10002" data-name="Path 10002" d="M280.468,219.509c.331-.754,2.21-5.927,3.932-4.107,1,1.06,1.1,4.114-.031,6.59a10.486,10.486,0,0,1-3.757,4.337C280.147,226.437,280.468,219.509,280.468,219.509Z" transform="translate(-222.715 -172.847)" fill="#fda68a"/>
    <path id="Path_10003" data-name="Path 10003" d="M144.615,237.271c-.408-.715-2.982-4.348-4.5-2.356-.886,1.16.082,3.778,1.468,6.121a10.485,10.485,0,0,0,4.193,3.916C146.247,245.01,144.615,237.271,144.615,237.271Z" transform="translate(-114.836 -187.662)" fill="#fda68a"/>
  </g>
</svg>
