<?xml version="1.0" encoding="utf-8"?>
<!-- Generator: Adobe Illustrator 24.2.3, SVG Export Plug-In . SVG Version: 6.00 Build 0)  -->
<svg version="1.1" id="Layer_1" xmlns="http://www.w3.org/2000/svg" xmlns:xlink="http://www.w3.org/1999/xlink" x="0px" y="0px"
	 viewBox="0 0 959 334.36" style="enable-background:new 0 0 959 334.36;" xml:space="preserve">
<style type="text/css">
	.star-stripe-st0{fill:#EAF5DB;}
</style>
<g>
	<polygon class="star-stripe-st0" points="799.56,22.19 791.58,48.71 775.2,53.29 791.74,62.42 799.56,106.88 806.34,62.42 822.93,54.42
		806.1,48.71 	"/>
	<polygon class="star-stripe-st0" points="506.43,52.44 499.7,74.79 485.89,78.66 499.83,86.35 506.43,123.84 512.15,86.35 526.13,79.61
		511.94,74.79 	"/>
	<polygon class="star-stripe-st0" points="394.99,163.88 388.26,186.23 374.45,190.1 388.4,197.79 394.99,235.28 400.71,197.79 414.69,191.04
		400.5,186.23 	"/>
	<polygon class="star-stripe-st0" points="580.18,270.26 574.37,289.57 562.44,292.91 574.49,299.55 580.18,331.94 585.12,299.55 597.2,293.72
		584.94,289.57 	"/>
	<polygon class="star-stripe-st0" points="887.67,89.98 883.78,102.9 875.8,105.14 883.86,109.58 887.67,131.25 890.98,109.58 899.06,105.69
		890.86,102.9 	"/>
	<polygon class="star-stripe-st0" points="153.13,202.08 144.9,229.44 128,234.17 145.06,243.58 153.13,289.46 160.13,243.58 177.24,235.33
		159.88,229.44 	"/>
	<polygon class="star-stripe-st0" points="285.03,133.25 277.42,158.54 261.8,162.91 277.57,171.62 285.03,214.04 291.51,171.62 307.33,163.99
		291.27,158.54 	"/>
	<polygon class="star-stripe-st0" points="73.4,83.9 61.61,123.09 37.4,129.86 61.84,143.35 73.4,209.07 83.43,143.35 107.94,131.52
		83.06,123.09 	"/>
	<polygon class="star-stripe-st0" points="164.12,4.09 155.62,32.35 138.16,37.23 155.78,46.95 164.12,94.34 171.35,46.95 189.02,38.43
		171.08,32.35 	"/>
	<polygon class="star-stripe-st0" points="339.87,48.49 336.83,58.61 330.57,60.36 336.89,63.84 339.87,80.82 342.46,63.84 348.79,60.79
		342.37,58.61 	"/>
	<polygon class="star-stripe-st0" points="236.47,85.96 233.42,96.09 227.16,97.84 233.48,101.32 236.47,118.3 239.06,101.32 245.39,98.27
		238.96,96.09 	"/>
	<polygon class="star-stripe-st0" points="848.71,203.01 844.15,218.18 834.77,220.81 844.24,226.03 848.71,251.47 852.59,226.03 862.08,221.45
		852.45,218.18 	"/>
	<polygon class="star-stripe-st0" points="670.12,22.44 656.86,66.5 629.64,74.12 657.12,89.28 670.12,163.18 681.39,89.28 708.95,75.99
		680.98,66.5 	"/>
</g>
</svg>
