<?xml version="1.0" encoding="UTF-8"?>
<svg width="240px" viewBox="0 0 240 240" xmlns="http://www.w3.org/2000/svg" xmlns:xlink="http://www.w3.org/1999/xlink" version="1.1">
 <!-- Generated by Pixelmator Pro 1.7.1 -->
 <g class="recolor-1">
   <path id="Path" d="M52.2 181.1 C50.5 179.22 48.86 177.25 47.32 175.24 46.04 173.56 43.64 173.24 41.96 174.52 40.28 175.8 39.96 178.2 41.24 179.88 42.9 182.06 44.68 184.2 46.53 186.24 47.29 187.07 48.32 187.5 49.37 187.5 50.29 187.5 51.2 187.17 51.94 186.51 53.5 185.09 53.62 182.67 52.2 181.1 Z" />
   <path id="Path-1" d="M119.45 21.94 C65.23 21.94 21.12 66.05 21.12 120.27 21.12 138.04 25.91 155.46 34.98 170.63 36.06 172.44 38.41 173.04 40.23 171.95 42.04 170.87 42.64 168.52 41.55 166.7 33.19 152.71 28.77 136.65 28.77 120.26 28.77 70.26 69.45 29.58 119.45 29.58 169.45 29.58 210.13 70.26 210.13 120.26 210.13 170.26 169.45 210.94 119.45 210.94 97.04 210.94 75.52 202.7 58.86 187.73 57.29 186.32 54.87 186.45 53.46 188.02 52.05 189.59 52.18 192.01 53.75 193.42 71.81 209.65 95.15 218.59 119.45 218.59 173.67 218.59 217.78 174.48 217.78 120.26 217.78 66.05 173.67 21.94 119.45 21.94 Z" />
   <path id="Path-2" d="M161.92 52.46 C162.56 51.37 162.2 49.96 161.11 49.32 148.53 41.92 134.13 38.01 119.46 38.01 74.1 38.01 37.2 74.91 37.2 120.27 37.2 165.63 74.1 202.53 119.46 202.53 164.82 202.53 201.72 165.63 201.72 120.27 201.72 101.76 195.72 84.28 184.36 69.72 183.58 68.72 182.14 68.54 181.14 69.32 180.14 70.1 179.96 71.54 180.74 72.54 191.46 86.29 197.13 102.79 197.13 120.27 197.13 163.1 162.29 197.94 119.46 197.94 76.63 197.94 41.79 163.1 41.79 120.27 41.79 77.44 76.63 42.6 119.46 42.6 133.31 42.6 146.91 46.29 158.78 53.28 159.87 53.92 161.28 53.56 161.92 52.46 Z" />
   <path id="Path-3" d="M175.24 66.23 C175.69 66.69 176.29 66.93 176.89 66.93 177.47 66.93 178.04 66.71 178.49 66.28 179.4 65.4 179.42 63.94 178.54 63.03 175.47 59.86 172.12 56.92 168.59 54.28 167.58 53.52 166.14 53.73 165.38 54.75 164.62 55.77 164.83 57.2 165.85 57.96 169.17 60.45 172.33 63.23 175.24 66.23 Z" />
   <path id="Path-4" d="M123.66 51.02 C123.66 48.7 121.78 46.81 119.45 46.81 117.13 46.81 115.24 48.69 115.24 51.02 115.24 53.34 117.12 55.23 119.45 55.23 121.77 55.23 123.66 53.34 123.66 51.02 Z" />
   <path id="Path-5" d="M119.45 184.94 C117.13 184.94 115.24 186.82 115.24 189.15 115.24 191.47 117.12 193.36 119.45 193.36 121.77 193.36 123.66 191.48 123.66 189.15 123.66 186.82 121.77 184.94 119.45 184.94 Z" />
   <path id="Path-6" d="M192.72 120.08 C192.72 117.76 190.84 115.87 188.51 115.87 186.19 115.87 184.3 117.75 184.3 120.08 184.3 122.4 186.18 124.29 188.51 124.29 190.84 124.29 192.72 122.41 192.72 120.08 Z" />
   <path id="Path-7" d="M46.18 120.08 C46.18 122.4 48.06 124.29 50.39 124.29 52.71 124.29 54.6 122.41 54.6 120.08 54.6 117.76 52.72 115.87 50.39 115.87 48.06 115.87 46.18 117.76 46.18 120.08 Z" />
   <path id="Path-8" d="M118.24 62.31 L113.19 119.68 C113.16 120 113.41 120.27 113.73 120.27 L124.94 120.27 C125.26 120.27 125.52 119.99 125.48 119.67 L119.32 62.3 C119.26 61.64 118.3 61.65 118.24 62.31 Z" />
   <path id="Path-9" d="M114.2 119.83 L145.2 150.83 129.02 123.84" stroke-width="2" stroke-linejoin="round"/>
 </g>
</svg>
