<?xml version="1.0" encoding="UTF-8"?>
<svg width="275px" viewBox="0 0 275 276" xmlns="http://www.w3.org/2000/svg" xmlns:xlink="http://www.w3.org/1999/xlink" version="1.1">
 <!-- Generated by Pixelmator Pro 1.7.1 -->
 <g id="_x31_">
  <g id="group">
   <path id="Path" class="recolor-1" d="M191.35 240.37 L190.02 240.37 C187.81 240.37 186.02 242.16 186.02 244.37 186.02 246.58 187.81 248.37 190.02 248.37 L191.35 248.37 C193.56 248.37 195.35 246.58 195.35 244.37 195.35 242.16 193.56 240.37 191.35 240.37 Z" />
  </g>
  <g id="group-1">
   <path id="Path-1" class="recolor-1" d="M263.93 197.27 C263.93 225.44 241.01 248.36 212.84 248.36 L203.27 248.36 C201.06 248.36 199.27 246.57 199.27 244.36 199.27 242.15 201.06 240.36 203.27 240.36 L212.84 240.36 C236.6 240.36 255.93 221.03 255.93 197.27 255.93 173.51 236.6 154.18 212.84 154.18 L197.35 154.18 C197.26 154.18 197.18 154.16 197.1 154.15 197.02 154.16 196.93 154.18 196.85 154.18 195.31 154.18 193.85 153.3 193.19 151.81 184.9 133.21 169.2 119.27 151.43 113.68 L151.43 124.31 C151.43 126.52 149.64 128.31 147.43 128.31 L112.62 128.31 C110.41 128.31 108.62 126.52 108.62 124.31 L108.62 116.41 C100.02 120.15 92.25 125.8 85.94 133.04 84.49 134.71 81.97 134.88 80.3 133.43 78.63 131.98 78.46 129.46 79.91 127.79 87.79 118.75 97.68 111.93 108.62 107.76 111.23 106.76 113.9 105.92 116.62 105.23 L116.62 120.31 143.43 120.31 143.43 103.69 C146.13 104.08 148.8 104.64 151.43 105.37 171.55 110.92 189.52 125.9 199.39 146.19 L212.83 146.19 C241 146.19 263.92 169.11 263.93 197.27 Z" />
  </g>
  <g id="group-2">
   <path id="Path-2" class="recolor-1" d="M186.73 170.28 C186.86 170.3 186.99 170.32 187.12 170.32 L201.01 170.32 C215.93 170.32 229.8 179.05 236.35 192.56 236.87 193.63 237.94 194.25 239.05 194.25 239.49 194.25 239.93 194.15 240.36 193.95 241.85 193.23 242.47 191.43 241.75 189.94 234.2 174.37 218.21 164.31 201.01 164.31 L188.24 164.31 C180.91 149.02 168.32 136.69 153.41 130.33 151.89 129.68 150.12 130.39 149.47 131.91 148.82 133.43 149.53 135.2 151.05 135.85 165.16 141.87 177.02 153.79 183.6 168.54 184.1 169.66 185.19 170.32 186.34 170.32 186.48 170.32 186.61 170.3 186.73 170.28 Z" />
  </g>
  <g id="group-3">
   <path id="Path-3" class="recolor-1" d="M238.74 198.8 C239.6 201.8 240.1 204.91 240.22 208.04 240.28 209.66 241.61 210.92 243.22 210.92 L243.34 210.92 C245 210.86 246.29 209.46 246.22 207.81 246.08 204.2 245.51 200.61 244.51 197.14 244.05 195.55 242.39 194.63 240.8 195.08 239.2 195.54 238.28 197.2 238.74 198.8 Z" />
  </g>
  <g id="group-4">
   <path id="Path-4" class="recolor-1" d="M112.85 248.37 L55.86 248.37 C27.69 248.37 4.77 225.45 4.77 197.28 4.77 169.11 27.69 146.19 55.86 146.19 L68.25 146.19 C69.58 143.16 71.12 140.2 72.86 137.38 74.02 135.5 76.48 134.91 78.36 136.07 80.24 137.23 80.83 139.69 79.67 141.57 77.82 144.57 76.21 147.75 74.88 151 74.7 151.45 74.44 151.84 74.13 152.18 73.44 153.37 72.16 154.18 70.68 154.18 L55.86 154.18 C32.1 154.18 12.77 173.51 12.77 197.27 12.77 221.03 32.1 240.36 55.86 240.36 L112.85 240.36 155.85 240.36 178.6 240.36 C180.81 240.36 182.6 242.15 182.6 244.36 182.6 246.57 180.81 248.36 178.6 248.36 L155.85 248.36 Z" />
  </g>
 </g>
 <g id="group-5">
  <path id="Path-5" class="recolor-1" d="M138.91 30.35 C140.41 31.97 140.32 34.5 138.71 36.01 137.09 37.51 134.56 37.42 133.05 35.81 L129.03 31.49 100.58 65.99 112.62 65.99 C114.83 65.99 116.62 67.78 116.62 69.99 L116.62 105.23 C113.9 105.92 111.23 106.76 108.62 107.76 L108.62 73.99 92.1 73.99 C90.55 73.99 89.14 73.1 88.48 71.7 87.82 70.3 88.03 68.64 89.01 67.45 L125.76 22.89 C126.5 22 127.58 21.47 128.73 21.43 129.9 21.39 130.99 21.86 131.78 22.7 Z" />
  <path id="Path-6" class="recolor-1" d="M169.22 71.5 C168.55 72.89 167.15 73.77 165.61 73.77 L151.43 73.77 151.43 105.37 C148.8 104.64 146.13 104.08 143.43 103.69 L143.43 69.77 C143.43 67.56 145.22 65.77 147.43 65.77 L157.27 65.77 141.65 46.34 C140.27 44.61 140.54 42.1 142.26 40.71 143.99 39.33 146.5 39.6 147.89 41.32 L168.73 67.26 C169.69 68.46 169.88 70.11 169.22 71.5 Z" />
 </g>
</svg>
