<?xml version="1.0" encoding="utf-8"?>
<!-- Generator: Adobe Illustrator 25.0.1, SVG Export Plug-In . SVG Version: 6.00 Build 0)  -->
<svg version="1.1" xmlns="http://www.w3.org/2000/svg" x="0" y="0"
	 viewBox="0 0 231.5 141" >
<style type="text/css">
  .usage-chart-svg {
    stroke:#FFFFFF
  }
</style>

<g class="usage-chart-svg">

	<g class="download-bar" transform="translate(0 22.468)">


		<path id="Path_11069" class="st23" d="M40.4,97.1c3.9,2,8,3.8,12.1,5.3l21.9-19.1c-3-0.9-5.9-1.8-8.7-2.9L40.4,97.1z"/>


		<path id="Path_11070" class="st24" d="M17.1,41.9L34.9,43c0.5-1.8,1.2-3.5,2-5.1l-14.5-2C20.5,37.8,18.7,39.8,17.1,41.9z"/>

		<path id="Path_11071" class="st25" d="M36.4,25.7l8.5,2.5c1.9-1.6,3.9-3.1,5.9-4.5l-6-2.3C41.9,22.8,39.1,24.2,36.4,25.7z"/>


		<path id="Path_11072" class="st26" d="M44.8,21.4l6,2.3c2.2-1.4,4.5-2.8,6.9-4l-4-2C50.7,18.9,47.7,20.1,44.8,21.4z"/>


		<path id="Path_11073" class="st27" d="M73.1,12.2l1.3,1.1c3-0.9,6.1-1.7,9.3-2.3l-0.6-0.7C79.7,10.9,76.4,11.5,73.1,12.2z"/>


		<path id="Path_11074" class="st28" d="M93.7,9.3L93.5,9c-3.5,0.4-7,0.8-10.4,1.4l0.6,0.7C87,10.3,90.3,9.8,93.7,9.3z"/>

		<path id="Path_11075" class="st29" d="M63.2,14.7l2.4,1.6c2.8-1.1,5.7-2.1,8.7-2.9l-1.3-1.1C69.7,13,66.4,13.8,63.2,14.7z"/>

		<path id="Path_11076" class="st30" d="M53.8,17.8l4,2c2.5-1.3,5.1-2.4,7.9-3.5l-2.4-1.6C60,15.7,56.8,16.7,53.8,17.8z"/>

		<path id="Path_11077" class="st31" d="M28.9,30.6l11.4,2.4c1.4-1.7,3-3.3,4.6-4.7l-8.5-2.5C33.8,27.2,31.3,28.8,28.9,30.6z"/>

		<path id="Path_11078" class="st32" d="M22.4,35.9l14.5,2c1-1.8,2.1-3.4,3.4-5l-11.4-2.4C26.6,32.2,24.4,34,22.4,35.9z"/>


		<path id="Path_11079" class="st33" d="M17.1,41.9c-1.5,2-2.8,4.2-3.9,6.5h21v0c0-1.8,0.2-3.6,0.7-5.3L17.1,41.9z"/>


		<path id="Path_11080" class="st34" d="M13.2,48.4c-1,2.2-1.8,4.5-2.3,6.8l24-1.6c-0.5-1.7-0.7-3.5-0.7-5.2L13.2,48.4z"/>


		<path id="Path_11081" class="st35" d="M10.9,55.2c-0.3,1.7-0.5,3.4-0.5,5.1c0,0.7,0,1.4,0.1,2.1L37,58.9c-0.9-1.7-1.6-3.4-2.1-5.3
			L10.9,55.2z"/>


		<path id="Path_11082" class="st36" d="M10.5,62.4c0.2,2.5,0.8,5,1.6,7.3l28.3-5.9c-1.3-1.5-2.4-3.2-3.4-5L10.5,62.4z"/>


		<path id="Path_11083" class="st37" d="M12.1,69.8c0.9,2.5,2.2,5,3.7,7.2L45,68.5c-1.7-1.4-3.2-3-4.6-4.7L12.1,69.8z"/>


		<path id="Path_11084" class="st38" d="M15.8,77c1.8,2.6,3.8,5,6,7.2l29-11.3c-2-1.3-4-2.8-5.8-4.4L15.8,77z"/>


		<path id="Path_11085" class="st39" d="M21.9,84.2c2.5,2.4,5.2,4.7,8.1,6.7l27.8-14c-2.4-1.2-4.7-2.5-6.9-4L21.9,84.2z"/>

		<path id="Path_11086" class="st40" d="M30,90.9c3.3,2.3,6.8,4.4,10.4,6.2l25.3-16.7c-2.7-1.1-5.4-2.2-7.9-3.5L30,90.9z"/>

		<path id="Path_11087" class="st41" d="M52.6,102.4c4.6,1.7,9.3,3.2,14.1,4.4L84,85.7c-3.2-0.7-6.4-1.5-9.5-2.4L52.6,102.4z"/>

		<path id="Path_11088" class="st42" d="M66.7,106.9c4.9,1.3,9.9,2.3,15,3.2l12.1-22.7c-3.3-0.4-6.5-1-9.7-1.7L66.7,106.9z"/>
	</g>

	<g class="upload-bar" transform="translate(124.833 0)">


		<path id="Path_11089" class="st47" d="M37.7,12.2c-4.9-1.3-9.9-2.3-15-3.2l-12,22.5c3.3,0.4,6.6,1,9.8,1.7L37.7,12.2z"/>

		<path id="Path_11090" class="st48" d="M52.1,16.7c-4.7-1.7-9.5-3.3-14.3-4.5l-17.2,21c3.3,0.7,6.6,1.5,9.8,2.4L52.1,16.7z"/>

		<path id="Path_11091" class="st49" d="M74.6,28.2c-3.4-2.4-7-4.5-10.7-6.3L38.7,38.5c2.8,1.1,5.5,2.3,8.2,3.6L74.6,28.2z"/>

		<path id="Path_11092" class="st50" d="M74.6,28.2L46.9,42.1c2.3,1.2,4.5,2.4,6.6,3.8l29-11.2C80.1,32.3,77.4,30.2,74.6,28.2z"/>


		<path id="Path_11093" class="st51" d="M88.8,42.1c-1.8-2.7-3.9-5.2-6.2-7.4l-29,11.2c2.1,1.4,4.2,2.9,6.1,4.6L88.8,42.1z"/>


		<path id="Path_11094" class="st52" d="M94.1,56.8c-0.2-2.6-0.8-5.2-1.7-7.6l-28.2,5.9c1.4,1.6,2.5,3.4,3.5,5.3L94.1,56.8z"/>

		<path id="Path_11095" class="st53" d="M94.1,56.8l-26.4,3.6c0.8,1.6,1.4,3.2,1.9,4.9l24.1-1.6c0.3-1.6,0.5-3.3,0.5-4.9
			C94.2,58.1,94.1,57.5,94.1,56.8z"/>

		<path id="Path_11096" class="st54" d="M70.3,70.8c0,1.7-0.3,3.4-0.7,5l18,1.2c1.4-1.9,2.7-4,3.7-6.2L70.3,70.8z"/>

		<path id="Path_11097" class="st55" d="M69.6,75.8c-0.5,1.9-1.2,3.7-2.2,5.4l14.6,2c2-1.9,3.9-4,5.6-6.2L69.6,75.8z"/>

		<path id="Path_11098" class="st56" d="M82,83.2l-14.6-2c-0.9,1.7-2,3.3-3.3,4.8l11.6,2.4C77.9,86.9,80,85.1,82,83.2z"/>


		<path id="Path_11099" class="st57" d="M75.7,88.5l-11.6-2.4c-1.5,1.8-3.1,3.4-4.9,4.9l8.7,2.5C70.5,92,73.2,90.3,75.7,88.5z"/>

		<path id="Path_11100" class="st58" d="M67.8,93.5L59.2,91c-1.8,1.5-3.6,2.9-5.5,4.1l6.3,2.4C62.6,96.3,65.3,94.9,67.8,93.5z"/>

		<path id="Path_11101" class="st59" d="M59.9,97.5l-6.3-2.4c-2.3,1.5-4.8,2.9-7.3,4.1l4.2,2.1C53.7,100.2,56.9,98.9,59.9,97.5z"/>

		<path id="Path_11102" class="st60" d="M50.5,101.3l-4.2-2.1c-2.4,1.2-4.9,2.3-7.6,3.3l2.6,1.7C44.6,103.4,47.6,102.4,50.5,101.3z"/>

		<path id="Path_11103" class="st61" d="M41.4,104.3l-2.6-1.7c-2.9,1.1-5.9,2.1-9.1,3l1.4,1.3C34.7,106.1,38.1,105.2,41.4,104.3z"/>

		<path id="Path_11104" class="st62" d="M31.2,106.8l-1.4-1.3c-3,0.9-6,1.6-9.1,2.3l0.7,0.9C24.7,108.2,28,107.5,31.2,106.8z"/>

		<path id="Path_11105" class="st63" d="M20.6,107.8c-3.4,0.7-6.8,1.3-10.2,1.7l0.3,0.5c3.6-0.4,7.2-0.8,10.7-1.4L20.6,107.8z"/>

		<path id="Path_11106" class="st64" d="M69.6,65.3c0.5,1.7,0.7,3.5,0.7,5.3c0,0.1,0,0.2,0,0.3h21.1c1.1-2.3,1.9-4.7,2.4-7.2
			L69.6,65.3z"/>

		<path id="Path_11107" class="st65" d="M92.4,49.2c-0.9-2.5-2.1-4.9-3.6-7.1l-29.1,8.4c1.6,1.4,3.1,2.9,4.5,4.6L92.4,49.2z"/>

		<path id="Path_11108" class="st66" d="M64,21.9c-3.9-2-7.8-3.7-11.9-5.2l-21.8,19c2.9,0.8,5.7,1.8,8.5,2.8L64,21.9z"/>
	</g>
</g>
</svg>
