<svg xmlns="http://www.w3.org/2000/svg" width="30.277" height="27.867" viewBox="0 0 30.277 27.867">
  <g id="Group_7964" data-name="Group 7964" transform="translate(-17684.277 9433)">
    <g id="Group_7147" data-name="Group 7147" transform="translate(17665.045 -9463.649)">
      <g id="Group_7130" data-name="Group 7130" transform="translate(19.232 34.278)">
        <path id="Path_10755" data-name="Path 10755" d="M31.351,93.7A12.119,12.119,0,1,1,43.47,81.577,12.133,12.133,0,0,1,31.351,93.7Zm0-23.677A11.558,11.558,0,1,0,42.909,81.577,11.571,11.571,0,0,0,31.351,70.019Z" transform="translate(-19.232 -69.458)" fill="#fff"/>
      </g>
      <g id="Group_7131" data-name="Group 7131" transform="translate(19.354 30.649)">
        <path id="Path_10756" data-name="Path 10756" d="M50.688,45.058H44.206V44.5h5.881a14.543,14.543,0,0,0-28.994.213l-.56-.04a15.1,15.1,0,0,1,30.136.09Z" transform="translate(-20.533 -30.649)" fill="#fff"/>
      </g>
      <g id="Group_7132" data-name="Group 7132" transform="translate(42.887 46.936)">
        <path id="Path_10757" data-name="Path 10757" d="M275.732,205.394H272.49a.281.281,0,0,1,0-.561h3.242a.281.281,0,1,1,0,.561Z" transform="translate(-272.21 -204.833)" fill="#fff"/>
      </g>
      <g id="Group_7133" data-name="Group 7133" transform="translate(42.656 49.711)">
        <path id="Path_10758" data-name="Path 10758" d="M273.943,235.075h-3.92a.281.281,0,0,1,0-.561h3.92a.281.281,0,1,1,0,.561Z" transform="translate(-269.743 -234.514)" fill="#fff"/>
      </g>
      <g id="Group_7134" data-name="Group 7134" transform="translate(41.251 52.482)">
        <path id="Path_10759" data-name="Path 10759" d="M261.348,264.711H255a.281.281,0,1,1,0-.561h6.351a.281.281,0,1,1,0,.561Z" transform="translate(-254.716 -264.15)" fill="#fff"/>
      </g>
      <g id="Group_7135" data-name="Group 7135" transform="translate(38.693 55.255)">
        <path id="Path_10760" data-name="Path 10760" d="M237.128,294.363h-9.484a.281.281,0,1,1,0-.561h9.484a.281.281,0,1,1,0,.561Z" transform="translate(-227.364 -293.802)" fill="#fff"/>
      </g>
      <g id="Group_7136" data-name="Group 7136" transform="translate(30.71 57.952)">
        <path id="Path_10761" data-name="Path 10761" d="M160.26,323.21h-18a.281.281,0,0,1,0-.561h18a.281.281,0,0,1,0,.561Z" transform="translate(-141.984 -322.649)" fill="#fff"/>
      </g>
      <g id="Group_7137" data-name="Group 7137" transform="translate(20.188 49.821)">
        <path id="Path_10762" data-name="Path 10762" d="M29.739,237.158a.281.281,0,0,1-.107-.54l2.19-.9a.281.281,0,0,1,.214.519l-2.19.9A.28.28,0,0,1,29.739,237.158Z" transform="translate(-29.459 -235.692)" fill="#fff"/>
      </g>
      <g id="Group_7138" data-name="Group 7138" transform="translate(19.244 46.305)">
        <path id="Path_10763" data-name="Path 10763" d="M22.152,198.651H19.641a.281.281,0,0,1,0-.561h2.512a.281.281,0,0,1,0,.561Z" transform="translate(-19.36 -198.09)" fill="#fff"/>
      </g>
      <g id="Group_7139" data-name="Group 7139" transform="translate(20.208 41.724)">
        <path id="Path_10764" data-name="Path 10764" d="M32.2,150.642a.28.28,0,0,1-.112-.024l-2.25-.985a.281.281,0,0,1,.225-.514l2.25.985a.281.281,0,0,1-.113.538Z" transform="translate(-29.674 -149.096)" fill="#fff"/>
      </g>
      <g id="Group_7140" data-name="Group 7140" transform="translate(22.68 37.927)">
        <path id="Path_10765" data-name="Path 10765" d="M58.093,110.854a.28.28,0,0,1-.2-.088l-1.708-1.808a.281.281,0,1,1,.408-.385l1.708,1.808a.281.281,0,0,1-.2.473Z" transform="translate(-56.104 -108.485)" fill="#fff"/>
      </g>
      <g id="Group_7141" data-name="Group 7141" transform="translate(26.578 35.275)">
        <path id="Path_10766" data-name="Path 10766" d="M99.036,83.012a.281.281,0,0,1-.259-.173l-.964-2.331a.28.28,0,1,1,.518-.215l.964,2.331a.281.281,0,0,1-.259.388Z" transform="translate(-97.791 -80.12)" fill="#fff"/>
      </g>
      <g id="Group_7142" data-name="Group 7142" transform="translate(30.978 34.411)">
        <path id="Path_10767" data-name="Path 10767" d="M145.171,73.993a.281.281,0,0,1-.28-.276l-.04-2.552a.281.281,0,0,1,.561-.009l.04,2.552a.28.28,0,0,1-.276.285Z" transform="translate(-144.851 -70.881)" fill="#fff"/>
      </g>
      <g id="Group_7143" data-name="Group 7143" transform="translate(34.635 35.435)">
        <path id="Path_10768" data-name="Path 10768" d="M184.238,84.67a.281.281,0,0,1-.255-.4L185.007,82a.28.28,0,0,1,.511.231l-1.025,2.27A.281.281,0,0,1,184.238,84.67Z" transform="translate(-183.957 -81.839)" fill="#fff"/>
      </g>
      <g id="Group_7144" data-name="Group 7144" transform="translate(37.608 37.927)">
        <path id="Path_10769" data-name="Path 10769" d="M216.041,110.893a.281.281,0,0,1-.2-.476l1.788-1.848a.281.281,0,1,1,.4.39l-1.788,1.848A.28.28,0,0,1,216.041,110.893Z" transform="translate(-215.76 -108.484)" fill="#fff"/>
      </g>
      <g id="Group_7145" data-name="Group 7145" transform="translate(39.658 41.865)">
        <path id="Path_10770" data-name="Path 10770" d="M237.958,152.146a.281.281,0,0,1-.108-.539l2.351-.985a.281.281,0,1,1,.217.517l-2.351.985A.279.279,0,0,1,237.958,152.146Z" transform="translate(-237.677 -150.6)" fill="#fff"/>
      </g>
      <g id="Group_7146" data-name="Group 7146" transform="translate(28.989 44.17)">
        <path id="Path_10771" data-name="Path 10771" d="M125.882,179.852a2.3,2.3,0,1,1,2.3-2.3A2.305,2.305,0,0,1,125.882,179.852Zm0-4.044a1.741,1.741,0,1,0,1.741,1.741A1.743,1.743,0,0,0,125.882,175.808Z" transform="translate(-123.58 -175.247)" fill="#fff"/>
      </g>
    </g>
  </g>
</svg>
