<?xml version="1.0" encoding="utf-8"?>
<!-- Generator: Adobe Illustrator 24.2.3, SVG Export Plug-In . SVG Version: 6.00 Build 0)  -->
<svg version="1.1" id="Layer_2" xmlns="http://www.w3.org/2000/svg" xmlns:xlink="http://www.w3.org/1999/xlink" x="0px" y="0px"
	 viewBox="0 0 319 334" xml:space="preserve">
<g>
	<path class="recolor-1" d="M282.5,171.77v-19.41c0-22.53-18.33-40.86-40.86-40.86H51.36c-22.53,0-40.86,18.33-40.86,40.86v113.28
		c0,22.53,18.33,40.86,40.86,40.86H253c2.49,0,4.5-2.01,4.5-4.5s-2.01-4.5-4.5-4.5H51.36c-17.57,0-31.86-14.29-31.86-31.86V152.36
		c0-17.57,14.29-31.86,31.86-31.86h190.28c17.57,0,31.86,14.29,31.86,31.86V171h-54.2c-12.3,0-22.3,10-22.3,22.3v31.4
		c0,12.3,10,22.3,22.3,22.3h57.4c2.01,0,3.95-0.27,5.8-0.77c9.5-2.55,16.5-11.24,16.5-21.53v-31.4
		C299,183.01,292,174.32,282.5,171.77z M290,224.7c0,5.26-3.06,9.82-7.5,11.97c-1.76,0.85-3.72,1.33-5.8,1.33h-57.4
		c-7.34,0-13.3-5.96-13.3-13.3v-31.4c0-7.34,5.96-13.3,13.3-13.3h57.4c2.08,0,4.04,0.48,5.8,1.33c4.44,2.15,7.5,6.71,7.5,11.97
		V224.7z"/>
	<path class="recolor-1" d="M276.7,247c2.01,0,3.95-0.27,5.8-0.77V280c0,2.49-2.01,4.5-4.5,4.5s-4.5-2.01-4.5-4.5v-33H276.7z"/>
	<text class="wallet-svg-text" x="15%" y="65%" font-size="4rem"></text>
</g>
<g>
	<circle class="recolor-1" cx="277.5" cy="302.5" r="4.5"/>
</g>
<g>
	<circle class="recolor-1" cx="66.5" cy="243.5" r="4.5"/>
</g>
<g>
	<path class="recolor-1" d="M144,247.5H80c-2.49,0-4.5-2.01-4.5-4.5s2.01-4.5,4.5-4.5h64c2.49,0,4.5,2.01,4.5,4.5S146.49,247.5,144,247.5z
		"/>
</g>
<g>
	<path class="recolor-1" d="M234.5,230c-11.3,0-20.5-9.2-20.5-20.5s9.2-20.5,20.5-20.5s20.5,9.2,20.5,20.5S245.8,230,234.5,230z
		 M234.5,192c-9.65,0-17.5,7.85-17.5,17.5s7.85,17.5,17.5,17.5s17.5-7.85,17.5-17.5S244.15,192,234.5,192z"/>
</g>
<g>
	<circle class="recolor-1" cx="268.5" cy="209.5" r="3.5"/>
</g>
<g>
	<path class="recolor-1" d="M56,101.5c-1.61,0-3.17-0.87-3.98-2.39c-1.16-2.2-0.33-4.92,1.87-6.08l134.2-71.1c6.43-3,20.48-5.68,27.7,5.66
		c7.03,11.05,32.15,60.28,33.21,62.37c1.13,2.21,0.25,4.92-1.97,6.05c-2.21,1.13-4.92,0.25-6.05-1.97
		c-0.26-0.51-25.98-50.93-32.79-61.63c-4.61-7.25-15.19-2.83-16.22-2.37L58.11,100.98C57.44,101.33,56.71,101.5,56,101.5z"/>
</g>
<g>
	<polygon class="recolor-1" points="117.5,95.5 215.5,45.5 225,62 164,96 	"/>
</g>
<g>
	<g>
		<path class="recolor-1" d="M234,198.1v1.25c0.83,0.08,1.53,0.25,2.12,0.51c0.59,0.25,1.11,0.64,1.55,1.16c0.35,0.39,0.62,0.8,0.8,1.22
			c0.19,0.42,0.28,0.8,0.28,1.15c0,0.39-0.14,0.72-0.42,1s-0.62,0.42-1.02,0.42c-0.76,0-1.25-0.41-1.47-1.23
			c-0.25-0.96-0.87-1.61-1.84-1.92v4.82c0.96,0.26,1.72,0.5,2.29,0.72s1.07,0.53,1.52,0.94c0.48,0.42,0.85,0.93,1.11,1.52
			c0.26,0.59,0.39,1.24,0.39,1.94c0,0.88-0.21,1.7-0.62,2.47s-1.02,1.4-1.82,1.88c-0.8,0.49-1.76,0.78-2.86,0.87v2.88
			c0,0.46-0.04,0.79-0.13,1c-0.09,0.21-0.28,0.31-0.58,0.31c-0.28,0-0.47-0.08-0.58-0.25c-0.11-0.17-0.17-0.43-0.17-0.79v-3.13
			c-0.9-0.1-1.69-0.31-2.37-0.64c-0.68-0.32-1.24-0.73-1.69-1.21c-0.45-0.48-0.79-0.98-1-1.51c-0.22-0.52-0.32-1.03-0.32-1.53
			c0-0.37,0.14-0.7,0.43-1s0.65-0.45,1.08-0.45c0.35,0,0.64,0.08,0.88,0.24c0.24,0.16,0.41,0.39,0.5,0.68
			c0.21,0.63,0.39,1.12,0.54,1.45s0.39,0.64,0.7,0.92c0.31,0.28,0.73,0.49,1.24,0.64v-5.38c-1.03-0.29-1.9-0.6-2.59-0.96
			s-1.26-0.85-1.69-1.5c-0.43-0.65-0.65-1.48-0.65-2.5c0-1.33,0.42-2.42,1.27-3.27c0.85-0.85,2.07-1.34,3.66-1.48v-1.23
			c0-0.65,0.24-0.97,0.73-0.97C233.75,197.15,234,197.46,234,198.1z M232.53,206.04v-4.43c-0.65,0.19-1.15,0.45-1.52,0.76
			c-0.36,0.32-0.54,0.8-0.54,1.44c0,0.61,0.17,1.07,0.51,1.38C231.32,205.5,231.83,205.79,232.53,206.04z M234,209.48v5.07
			c0.78-0.15,1.38-0.47,1.81-0.94c0.42-0.47,0.64-1.02,0.64-1.64c0-0.67-0.21-1.19-0.62-1.56C235.41,210.04,234.8,209.73,234,209.48
			z"/>
	</g>
</g>
</svg>
