<?xml version="1.0" encoding="UTF-8"?>
<svg viewBox="0 0 675 675" xmlns="http://www.w3.org/2000/svg" xmlns:xlink="http://www.w3.org/1999/xlink" version="1.1">
 <!-- Generated by Pixelmator Pro 1.7.1 -->
 <g id="group" class="recolor-1">
  <path id="Path" d="M635.61 249.25 C595.33 208.97 548.38 177.78 496.05 156.54 445.52 136.03 392.14 125.63 337.39 125.63 282.64 125.63 229.27 136.03 178.73 156.54 126.41 177.78 79.45 208.97 39.18 249.25 25.71 262.72 25.71 284.57 39.18 298.04 52.65 311.51 74.5 311.51 87.97 298.04 225.5 160.51 449.28 160.51 586.81 298.04 593.55 304.78 602.38 308.14 611.21 308.14 620.04 308.14 628.87 304.77 635.61 298.04 649.07 284.56 649.07 262.72 635.61 249.25 Z" />
  <path id="Path-1" d="M337.35 247.8 C252.87 247.8 173.4 280.74 113.59 340.55 100.12 354.02 100.12 375.87 113.59 389.34 127.06 402.81 148.91 402.81 162.38 389.34 258.86 292.86 415.84 292.86 512.31 389.34 519.05 396.08 527.88 399.44 536.71 399.44 545.54 399.44 554.37 396.07 561.11 389.34 574.58 375.87 574.58 354.02 561.11 340.55 501.3 280.74 421.83 247.8 337.35 247.8 Z" />
  <path id="Path-2" d="M337.35 372.57 C285.72 372.57 237.15 392.7 200.6 429.25 187.13 442.72 187.13 464.57 200.6 478.04 214.07 491.51 235.92 491.51 249.39 478.04 297.89 429.54 376.81 429.54 425.31 478.04 432.05 484.78 440.88 488.14 449.71 488.14 458.54 488.14 467.37 484.77 474.11 478.04 487.58 464.57 487.58 442.72 474.11 429.25 437.55 392.7 388.98 372.57 337.35 372.57 Z" />
  <path id="Path-3" d="M365.86 519.43 C365.86 535.253 353.033 548.08 337.21 548.08 321.387 548.08 308.56 535.253 308.56 519.43 308.56 503.607 321.387 490.78 337.21 490.78 353.033 490.78 365.86 503.607 365.86 519.43 Z" />
 </g>
</svg>
